<?xml version="1.0" encoding="utf-8" standalone="no"?>
<!DOCTYPE svg PUBLIC "-//W3C//DTD SVG 1.1//EN"
  "http://www.w3.org/Graphics/SVG/1.1/DTD/svg11.dtd">
<!-- Created with matplotlib (https://matplotlib.org/) -->
<svg height="504pt" version="1.1" viewBox="0 0 1008 504" width="1008pt" xmlns="http://www.w3.org/2000/svg" xmlns:xlink="http://www.w3.org/1999/xlink">
 <defs>
  <style type="text/css">
*{stroke-linecap:butt;stroke-linejoin:round;}
  </style>
 </defs>
 <g id="figure_1">
  <g id="patch_1">
   <path d="M 0 504 
L 1008 504 
L 1008 0 
L 0 0 
z
" style="fill:#ffffff;"/>
  </g>
  <g id="axes_1">
   <g id="patch_2">
    <path d="M 126 441 
L 481.090909 441 
L 481.090909 60.48 
L 126 60.48 
z
" style="fill:#e5e5e5;"/>
   </g>
   <g id="matplotlib.axis_1">
    <g id="xtick_1">
     <g id="line2d_1">
      <path clip-path="url(#p6ed911ad86)" d="M 142.140496 441 
L 142.140496 60.48 
" style="fill:none;stroke:#ffffff;stroke-linecap:square;stroke-width:0.8;"/>
     </g>
     <g id="line2d_2">
      <defs>
       <path d="M 0 0 
L 0 3.5 
" id="m9847685eb6" style="stroke:#555555;stroke-width:0.8;"/>
      </defs>
      <g>
       <use style="fill:#555555;stroke:#555555;stroke-width:0.8;" x="142.140496" xlink:href="#m9847685eb6" y="441"/>
      </g>
     </g>
     <g id="text_1">
      <!-- 0.000 -->
      <defs>
       <path d="M 31.78125 66.40625 
Q 24.171875 66.40625 20.328125 58.90625 
Q 16.5 51.421875 16.5 36.375 
Q 16.5 21.390625 20.328125 13.890625 
Q 24.171875 6.390625 31.78125 6.390625 
Q 39.453125 6.390625 43.28125 13.890625 
Q 47.125 21.390625 47.125 36.375 
Q 47.125 51.421875 43.28125 58.90625 
Q 39.453125 66.40625 31.78125 66.40625 
z
M 31.78125 74.21875 
Q 44.046875 74.21875 50.515625 64.515625 
Q 56.984375 54.828125 56.984375 36.375 
Q 56.984375 17.96875 50.515625 8.265625 
Q 44.046875 -1.421875 31.78125 -1.421875 
Q 19.53125 -1.421875 13.0625 8.265625 
Q 6.59375 17.96875 6.59375 36.375 
Q 6.59375 54.828125 13.0625 64.515625 
Q 19.53125 74.21875 31.78125 74.21875 
z
" id="DejaVuSans-48"/>
       <path d="M 10.6875 12.40625 
L 21 12.40625 
L 21 0 
L 10.6875 0 
z
" id="DejaVuSans-46"/>
      </defs>
      <g style="fill:#555555;" transform="translate(127.826433 455.598437)scale(0.1 -0.1)">
       <use xlink:href="#DejaVuSans-48"/>
       <use x="63.623047" xlink:href="#DejaVuSans-46"/>
       <use x="95.410156" xlink:href="#DejaVuSans-48"/>
       <use x="159.033203" xlink:href="#DejaVuSans-48"/>
       <use x="222.65625" xlink:href="#DejaVuSans-48"/>
      </g>
     </g>
    </g>
    <g id="xtick_2">
     <g id="line2d_3">
      <path clip-path="url(#p6ed911ad86)" d="M 182.491736 441 
L 182.491736 60.48 
" style="fill:none;stroke:#ffffff;stroke-linecap:square;stroke-width:0.8;"/>
     </g>
     <g id="line2d_4">
      <g>
       <use style="fill:#555555;stroke:#555555;stroke-width:0.8;" x="182.491736" xlink:href="#m9847685eb6" y="441"/>
      </g>
     </g>
     <g id="text_2">
      <!-- 0.025 -->
      <defs>
       <path d="M 19.1875 8.296875 
L 53.609375 8.296875 
L 53.609375 0 
L 7.328125 0 
L 7.328125 8.296875 
Q 12.9375 14.109375 22.625 23.890625 
Q 32.328125 33.6875 34.8125 36.53125 
Q 39.546875 41.84375 41.421875 45.53125 
Q 43.3125 49.21875 43.3125 52.78125 
Q 43.3125 58.59375 39.234375 62.25 
Q 35.15625 65.921875 28.609375 65.921875 
Q 23.96875 65.921875 18.8125 64.3125 
Q 13.671875 62.703125 7.8125 59.421875 
L 7.8125 69.390625 
Q 13.765625 71.78125 18.9375 73 
Q 24.125 74.21875 28.421875 74.21875 
Q 39.75 74.21875 46.484375 68.546875 
Q 53.21875 62.890625 53.21875 53.421875 
Q 53.21875 48.921875 51.53125 44.890625 
Q 49.859375 40.875 45.40625 35.40625 
Q 44.1875 33.984375 37.640625 27.21875 
Q 31.109375 20.453125 19.1875 8.296875 
z
" id="DejaVuSans-50"/>
       <path d="M 10.796875 72.90625 
L 49.515625 72.90625 
L 49.515625 64.59375 
L 19.828125 64.59375 
L 19.828125 46.734375 
Q 21.96875 47.46875 24.109375 47.828125 
Q 26.265625 48.1875 28.421875 48.1875 
Q 40.625 48.1875 47.75 41.5 
Q 54.890625 34.8125 54.890625 23.390625 
Q 54.890625 11.625 47.5625 5.09375 
Q 40.234375 -1.421875 26.90625 -1.421875 
Q 22.3125 -1.421875 17.546875 -0.640625 
Q 12.796875 0.140625 7.71875 1.703125 
L 7.71875 11.625 
Q 12.109375 9.234375 16.796875 8.0625 
Q 21.484375 6.890625 26.703125 6.890625 
Q 35.15625 6.890625 40.078125 11.328125 
Q 45.015625 15.765625 45.015625 23.390625 
Q 45.015625 31 40.078125 35.4375 
Q 35.15625 39.890625 26.703125 39.890625 
Q 22.75 39.890625 18.8125 39.015625 
Q 14.890625 38.140625 10.796875 36.28125 
z
" id="DejaVuSans-53"/>
      </defs>
      <g style="fill:#555555;" transform="translate(168.177673 455.598437)scale(0.1 -0.1)">
       <use xlink:href="#DejaVuSans-48"/>
       <use x="63.623047" xlink:href="#DejaVuSans-46"/>
       <use x="95.410156" xlink:href="#DejaVuSans-48"/>
       <use x="159.033203" xlink:href="#DejaVuSans-50"/>
       <use x="222.65625" xlink:href="#DejaVuSans-53"/>
      </g>
     </g>
    </g>
    <g id="xtick_3">
     <g id="line2d_5">
      <path clip-path="url(#p6ed911ad86)" d="M 222.842975 441 
L 222.842975 60.48 
" style="fill:none;stroke:#ffffff;stroke-linecap:square;stroke-width:0.8;"/>
     </g>
     <g id="line2d_6">
      <g>
       <use style="fill:#555555;stroke:#555555;stroke-width:0.8;" x="222.842975" xlink:href="#m9847685eb6" y="441"/>
      </g>
     </g>
     <g id="text_3">
      <!-- 0.050 -->
      <g style="fill:#555555;" transform="translate(208.528913 455.598437)scale(0.1 -0.1)">
       <use xlink:href="#DejaVuSans-48"/>
       <use x="63.623047" xlink:href="#DejaVuSans-46"/>
       <use x="95.410156" xlink:href="#DejaVuSans-48"/>
       <use x="159.033203" xlink:href="#DejaVuSans-53"/>
       <use x="222.65625" xlink:href="#DejaVuSans-48"/>
      </g>
     </g>
    </g>
    <g id="xtick_4">
     <g id="line2d_7">
      <path clip-path="url(#p6ed911ad86)" d="M 263.194215 441 
L 263.194215 60.48 
" style="fill:none;stroke:#ffffff;stroke-linecap:square;stroke-width:0.8;"/>
     </g>
     <g id="line2d_8">
      <g>
       <use style="fill:#555555;stroke:#555555;stroke-width:0.8;" x="263.194215" xlink:href="#m9847685eb6" y="441"/>
      </g>
     </g>
     <g id="text_4">
      <!-- 0.075 -->
      <defs>
       <path d="M 8.203125 72.90625 
L 55.078125 72.90625 
L 55.078125 68.703125 
L 28.609375 0 
L 18.3125 0 
L 43.21875 64.59375 
L 8.203125 64.59375 
z
" id="DejaVuSans-55"/>
      </defs>
      <g style="fill:#555555;" transform="translate(248.880152 455.598437)scale(0.1 -0.1)">
       <use xlink:href="#DejaVuSans-48"/>
       <use x="63.623047" xlink:href="#DejaVuSans-46"/>
       <use x="95.410156" xlink:href="#DejaVuSans-48"/>
       <use x="159.033203" xlink:href="#DejaVuSans-55"/>
       <use x="222.65625" xlink:href="#DejaVuSans-53"/>
      </g>
     </g>
    </g>
    <g id="xtick_5">
     <g id="line2d_9">
      <path clip-path="url(#p6ed911ad86)" d="M 303.545455 441 
L 303.545455 60.48 
" style="fill:none;stroke:#ffffff;stroke-linecap:square;stroke-width:0.8;"/>
     </g>
     <g id="line2d_10">
      <g>
       <use style="fill:#555555;stroke:#555555;stroke-width:0.8;" x="303.545455" xlink:href="#m9847685eb6" y="441"/>
      </g>
     </g>
     <g id="text_5">
      <!-- 0.100 -->
      <defs>
       <path d="M 12.40625 8.296875 
L 28.515625 8.296875 
L 28.515625 63.921875 
L 10.984375 60.40625 
L 10.984375 69.390625 
L 28.421875 72.90625 
L 38.28125 72.90625 
L 38.28125 8.296875 
L 54.390625 8.296875 
L 54.390625 0 
L 12.40625 0 
z
" id="DejaVuSans-49"/>
      </defs>
      <g style="fill:#555555;" transform="translate(289.231392 455.598437)scale(0.1 -0.1)">
       <use xlink:href="#DejaVuSans-48"/>
       <use x="63.623047" xlink:href="#DejaVuSans-46"/>
       <use x="95.410156" xlink:href="#DejaVuSans-49"/>
       <use x="159.033203" xlink:href="#DejaVuSans-48"/>
       <use x="222.65625" xlink:href="#DejaVuSans-48"/>
      </g>
     </g>
    </g>
    <g id="xtick_6">
     <g id="line2d_11">
      <path clip-path="url(#p6ed911ad86)" d="M 343.896694 441 
L 343.896694 60.48 
" style="fill:none;stroke:#ffffff;stroke-linecap:square;stroke-width:0.8;"/>
     </g>
     <g id="line2d_12">
      <g>
       <use style="fill:#555555;stroke:#555555;stroke-width:0.8;" x="343.896694" xlink:href="#m9847685eb6" y="441"/>
      </g>
     </g>
     <g id="text_6">
      <!-- 0.125 -->
      <g style="fill:#555555;" transform="translate(329.582632 455.598437)scale(0.1 -0.1)">
       <use xlink:href="#DejaVuSans-48"/>
       <use x="63.623047" xlink:href="#DejaVuSans-46"/>
       <use x="95.410156" xlink:href="#DejaVuSans-49"/>
       <use x="159.033203" xlink:href="#DejaVuSans-50"/>
       <use x="222.65625" xlink:href="#DejaVuSans-53"/>
      </g>
     </g>
    </g>
    <g id="xtick_7">
     <g id="line2d_13">
      <path clip-path="url(#p6ed911ad86)" d="M 384.247934 441 
L 384.247934 60.48 
" style="fill:none;stroke:#ffffff;stroke-linecap:square;stroke-width:0.8;"/>
     </g>
     <g id="line2d_14">
      <g>
       <use style="fill:#555555;stroke:#555555;stroke-width:0.8;" x="384.247934" xlink:href="#m9847685eb6" y="441"/>
      </g>
     </g>
     <g id="text_7">
      <!-- 0.150 -->
      <g style="fill:#555555;" transform="translate(369.933871 455.598437)scale(0.1 -0.1)">
       <use xlink:href="#DejaVuSans-48"/>
       <use x="63.623047" xlink:href="#DejaVuSans-46"/>
       <use x="95.410156" xlink:href="#DejaVuSans-49"/>
       <use x="159.033203" xlink:href="#DejaVuSans-53"/>
       <use x="222.65625" xlink:href="#DejaVuSans-48"/>
      </g>
     </g>
    </g>
    <g id="xtick_8">
     <g id="line2d_15">
      <path clip-path="url(#p6ed911ad86)" d="M 424.599174 441 
L 424.599174 60.48 
" style="fill:none;stroke:#ffffff;stroke-linecap:square;stroke-width:0.8;"/>
     </g>
     <g id="line2d_16">
      <g>
       <use style="fill:#555555;stroke:#555555;stroke-width:0.8;" x="424.599174" xlink:href="#m9847685eb6" y="441"/>
      </g>
     </g>
     <g id="text_8">
      <!-- 0.175 -->
      <g style="fill:#555555;" transform="translate(410.285111 455.598437)scale(0.1 -0.1)">
       <use xlink:href="#DejaVuSans-48"/>
       <use x="63.623047" xlink:href="#DejaVuSans-46"/>
       <use x="95.410156" xlink:href="#DejaVuSans-49"/>
       <use x="159.033203" xlink:href="#DejaVuSans-55"/>
       <use x="222.65625" xlink:href="#DejaVuSans-53"/>
      </g>
     </g>
    </g>
    <g id="xtick_9">
     <g id="line2d_17">
      <path clip-path="url(#p6ed911ad86)" d="M 464.950413 441 
L 464.950413 60.48 
" style="fill:none;stroke:#ffffff;stroke-linecap:square;stroke-width:0.8;"/>
     </g>
     <g id="line2d_18">
      <g>
       <use style="fill:#555555;stroke:#555555;stroke-width:0.8;" x="464.950413" xlink:href="#m9847685eb6" y="441"/>
      </g>
     </g>
     <g id="text_9">
      <!-- 0.200 -->
      <g style="fill:#555555;" transform="translate(450.636351 455.598437)scale(0.1 -0.1)">
       <use xlink:href="#DejaVuSans-48"/>
       <use x="63.623047" xlink:href="#DejaVuSans-46"/>
       <use x="95.410156" xlink:href="#DejaVuSans-50"/>
       <use x="159.033203" xlink:href="#DejaVuSans-48"/>
       <use x="222.65625" xlink:href="#DejaVuSans-48"/>
      </g>
     </g>
    </g>
    <g id="text_10">
     <!-- deviation $\epsilon$ -->
     <defs>
      <path d="M 45.40625 46.390625 
L 45.40625 75.984375 
L 54.390625 75.984375 
L 54.390625 0 
L 45.40625 0 
L 45.40625 8.203125 
Q 42.578125 3.328125 38.25 0.953125 
Q 33.9375 -1.421875 27.875 -1.421875 
Q 17.96875 -1.421875 11.734375 6.484375 
Q 5.515625 14.40625 5.515625 27.296875 
Q 5.515625 40.1875 11.734375 48.09375 
Q 17.96875 56 27.875 56 
Q 33.9375 56 38.25 53.625 
Q 42.578125 51.265625 45.40625 46.390625 
z
M 14.796875 27.296875 
Q 14.796875 17.390625 18.875 11.75 
Q 22.953125 6.109375 30.078125 6.109375 
Q 37.203125 6.109375 41.296875 11.75 
Q 45.40625 17.390625 45.40625 27.296875 
Q 45.40625 37.203125 41.296875 42.84375 
Q 37.203125 48.484375 30.078125 48.484375 
Q 22.953125 48.484375 18.875 42.84375 
Q 14.796875 37.203125 14.796875 27.296875 
z
" id="DejaVuSans-100"/>
      <path d="M 56.203125 29.59375 
L 56.203125 25.203125 
L 14.890625 25.203125 
Q 15.484375 15.921875 20.484375 11.0625 
Q 25.484375 6.203125 34.421875 6.203125 
Q 39.59375 6.203125 44.453125 7.46875 
Q 49.3125 8.734375 54.109375 11.28125 
L 54.109375 2.78125 
Q 49.265625 0.734375 44.1875 -0.34375 
Q 39.109375 -1.421875 33.890625 -1.421875 
Q 20.796875 -1.421875 13.15625 6.1875 
Q 5.515625 13.8125 5.515625 26.8125 
Q 5.515625 40.234375 12.765625 48.109375 
Q 20.015625 56 32.328125 56 
Q 43.359375 56 49.78125 48.890625 
Q 56.203125 41.796875 56.203125 29.59375 
z
M 47.21875 32.234375 
Q 47.125 39.59375 43.09375 43.984375 
Q 39.0625 48.390625 32.421875 48.390625 
Q 24.90625 48.390625 20.390625 44.140625 
Q 15.875 39.890625 15.1875 32.171875 
z
" id="DejaVuSans-101"/>
      <path d="M 2.984375 54.6875 
L 12.5 54.6875 
L 29.59375 8.796875 
L 46.6875 54.6875 
L 56.203125 54.6875 
L 35.6875 0 
L 23.484375 0 
z
" id="DejaVuSans-118"/>
      <path d="M 9.421875 54.6875 
L 18.40625 54.6875 
L 18.40625 0 
L 9.421875 0 
z
M 9.421875 75.984375 
L 18.40625 75.984375 
L 18.40625 64.59375 
L 9.421875 64.59375 
z
" id="DejaVuSans-105"/>
      <path d="M 34.28125 27.484375 
Q 23.390625 27.484375 19.1875 25 
Q 14.984375 22.515625 14.984375 16.5 
Q 14.984375 11.71875 18.140625 8.90625 
Q 21.296875 6.109375 26.703125 6.109375 
Q 34.1875 6.109375 38.703125 11.40625 
Q 43.21875 16.703125 43.21875 25.484375 
L 43.21875 27.484375 
z
M 52.203125 31.203125 
L 52.203125 0 
L 43.21875 0 
L 43.21875 8.296875 
Q 40.140625 3.328125 35.546875 0.953125 
Q 30.953125 -1.421875 24.3125 -1.421875 
Q 15.921875 -1.421875 10.953125 3.296875 
Q 6 8.015625 6 15.921875 
Q 6 25.140625 12.171875 29.828125 
Q 18.359375 34.515625 30.609375 34.515625 
L 43.21875 34.515625 
L 43.21875 35.40625 
Q 43.21875 41.609375 39.140625 45 
Q 35.0625 48.390625 27.6875 48.390625 
Q 23 48.390625 18.546875 47.265625 
Q 14.109375 46.140625 10.015625 43.890625 
L 10.015625 52.203125 
Q 14.9375 54.109375 19.578125 55.046875 
Q 24.21875 56 28.609375 56 
Q 40.484375 56 46.34375 49.84375 
Q 52.203125 43.703125 52.203125 31.203125 
z
" id="DejaVuSans-97"/>
      <path d="M 18.3125 70.21875 
L 18.3125 54.6875 
L 36.8125 54.6875 
L 36.8125 47.703125 
L 18.3125 47.703125 
L 18.3125 18.015625 
Q 18.3125 11.328125 20.140625 9.421875 
Q 21.96875 7.515625 27.59375 7.515625 
L 36.8125 7.515625 
L 36.8125 0 
L 27.59375 0 
Q 17.1875 0 13.234375 3.875 
Q 9.28125 7.765625 9.28125 18.015625 
L 9.28125 47.703125 
L 2.6875 47.703125 
L 2.6875 54.6875 
L 9.28125 54.6875 
L 9.28125 70.21875 
z
" id="DejaVuSans-116"/>
      <path d="M 30.609375 48.390625 
Q 23.390625 48.390625 19.1875 42.75 
Q 14.984375 37.109375 14.984375 27.296875 
Q 14.984375 17.484375 19.15625 11.84375 
Q 23.34375 6.203125 30.609375 6.203125 
Q 37.796875 6.203125 41.984375 11.859375 
Q 46.1875 17.53125 46.1875 27.296875 
Q 46.1875 37.015625 41.984375 42.703125 
Q 37.796875 48.390625 30.609375 48.390625 
z
M 30.609375 56 
Q 42.328125 56 49.015625 48.375 
Q 55.71875 40.765625 55.71875 27.296875 
Q 55.71875 13.875 49.015625 6.21875 
Q 42.328125 -1.421875 30.609375 -1.421875 
Q 18.84375 -1.421875 12.171875 6.21875 
Q 5.515625 13.875 5.515625 27.296875 
Q 5.515625 40.765625 12.171875 48.375 
Q 18.84375 56 30.609375 56 
z
" id="DejaVuSans-111"/>
      <path d="M 54.890625 33.015625 
L 54.890625 0 
L 45.90625 0 
L 45.90625 32.71875 
Q 45.90625 40.484375 42.875 44.328125 
Q 39.84375 48.1875 33.796875 48.1875 
Q 26.515625 48.1875 22.3125 43.546875 
Q 18.109375 38.921875 18.109375 30.90625 
L 18.109375 0 
L 9.078125 0 
L 9.078125 54.6875 
L 18.109375 54.6875 
L 18.109375 46.1875 
Q 21.34375 51.125 25.703125 53.5625 
Q 30.078125 56 35.796875 56 
Q 45.21875 56 50.046875 50.171875 
Q 54.890625 44.34375 54.890625 33.015625 
z
" id="DejaVuSans-110"/>
      <path id="DejaVuSans-32"/>
      <path d="M 19.734375 29.5 
Q 14.453125 30.671875 12.15625 33.84375 
Q 10.453125 36.078125 10.453125 39.109375 
Q 10.453125 47.40625 18.359375 52.25 
Q 24.609375 56.0625 34.1875 56.0625 
Q 37.890625 56.0625 41.9375 55.46875 
Q 46 54.890625 50.53125 53.71875 
L 48.96875 45.5625 
Q 44.484375 46.96875 40.71875 47.609375 
Q 36.859375 48.25 33.40625 48.25 
Q 27.59375 48.25 23.78125 46 
Q 19.1875 43.3125 19.1875 39.40625 
Q 19.1875 36.8125 21.578125 35.015625 
Q 24.421875 32.859375 30.078125 32.859375 
L 37.640625 32.859375 
L 36.234375 25.4375 
L 29 25.4375 
Q 22.265625 25.4375 18.3125 22.953125 
Q 12.9375 19.578125 12.9375 14.3125 
Q 12.9375 10.984375 15.828125 8.796875 
Q 19.4375 6.0625 26.8125 6.0625 
Q 31.34375 6.0625 35.6875 6.9375 
Q 40.046875 7.859375 43.84375 9.671875 
L 42.1875 1.3125 
Q 37.546875 -0.046875 33.296875 -0.734375 
Q 29.046875 -1.421875 25.140625 -1.421875 
Q 13.53125 -1.421875 8.0625 3.03125 
Q 3.90625 6.453125 3.90625 12.203125 
Q 3.90625 19.96875 9.375 24.75 
Q 13.421875 28.328125 19.734375 29.5 
z
" id="DejaVuSans-Oblique-949"/>
     </defs>
     <g style="fill:#555555;" transform="translate(270.485455 470.79625)scale(0.12 -0.12)">
      <use transform="translate(0 0.015625)" xlink:href="#DejaVuSans-100"/>
      <use transform="translate(63.476562 0.015625)" xlink:href="#DejaVuSans-101"/>
      <use transform="translate(125 0.015625)" xlink:href="#DejaVuSans-118"/>
      <use transform="translate(184.179688 0.015625)" xlink:href="#DejaVuSans-105"/>
      <use transform="translate(211.962891 0.015625)" xlink:href="#DejaVuSans-97"/>
      <use transform="translate(273.242188 0.015625)" xlink:href="#DejaVuSans-116"/>
      <use transform="translate(312.451172 0.015625)" xlink:href="#DejaVuSans-105"/>
      <use transform="translate(340.234375 0.015625)" xlink:href="#DejaVuSans-111"/>
      <use transform="translate(401.416016 0.015625)" xlink:href="#DejaVuSans-110"/>
      <use transform="translate(464.794922 0.015625)" xlink:href="#DejaVuSans-32"/>
      <use transform="translate(496.582031 0.015625)" xlink:href="#DejaVuSans-Oblique-949"/>
     </g>
    </g>
   </g>
   <g id="matplotlib.axis_2">
    <g id="ytick_1">
     <g id="line2d_19">
      <path clip-path="url(#p6ed911ad86)" d="M 126 423.70403 
L 481.090909 423.70403 
" style="fill:none;stroke:#ffffff;stroke-linecap:square;stroke-width:0.8;"/>
     </g>
     <g id="line2d_20">
      <defs>
       <path d="M 0 0 
L -3.5 0 
" id="m1d20546bef" style="stroke:#555555;stroke-width:0.8;"/>
      </defs>
      <g>
       <use style="fill:#555555;stroke:#555555;stroke-width:0.8;" x="126" xlink:href="#m1d20546bef" y="423.70403"/>
      </g>
     </g>
     <g id="text_11">
      <!-- 0.0 -->
      <g style="fill:#555555;" transform="translate(103.096875 427.503249)scale(0.1 -0.1)">
       <use xlink:href="#DejaVuSans-48"/>
       <use x="63.623047" xlink:href="#DejaVuSans-46"/>
       <use x="95.410156" xlink:href="#DejaVuSans-48"/>
      </g>
     </g>
    </g>
    <g id="ytick_2">
     <g id="line2d_21">
      <path clip-path="url(#p6ed911ad86)" d="M 126 354.518497 
L 481.090909 354.518497 
" style="fill:none;stroke:#ffffff;stroke-linecap:square;stroke-width:0.8;"/>
     </g>
     <g id="line2d_22">
      <g>
       <use style="fill:#555555;stroke:#555555;stroke-width:0.8;" x="126" xlink:href="#m1d20546bef" y="354.518497"/>
      </g>
     </g>
     <g id="text_12">
      <!-- 0.2 -->
      <g style="fill:#555555;" transform="translate(103.096875 358.317716)scale(0.1 -0.1)">
       <use xlink:href="#DejaVuSans-48"/>
       <use x="63.623047" xlink:href="#DejaVuSans-46"/>
       <use x="95.410156" xlink:href="#DejaVuSans-50"/>
      </g>
     </g>
    </g>
    <g id="ytick_3">
     <g id="line2d_23">
      <path clip-path="url(#p6ed911ad86)" d="M 126 285.332964 
L 481.090909 285.332964 
" style="fill:none;stroke:#ffffff;stroke-linecap:square;stroke-width:0.8;"/>
     </g>
     <g id="line2d_24">
      <g>
       <use style="fill:#555555;stroke:#555555;stroke-width:0.8;" x="126" xlink:href="#m1d20546bef" y="285.332964"/>
      </g>
     </g>
     <g id="text_13">
      <!-- 0.4 -->
      <defs>
       <path d="M 37.796875 64.3125 
L 12.890625 25.390625 
L 37.796875 25.390625 
z
M 35.203125 72.90625 
L 47.609375 72.90625 
L 47.609375 25.390625 
L 58.015625 25.390625 
L 58.015625 17.1875 
L 47.609375 17.1875 
L 47.609375 0 
L 37.796875 0 
L 37.796875 17.1875 
L 4.890625 17.1875 
L 4.890625 26.703125 
z
" id="DejaVuSans-52"/>
      </defs>
      <g style="fill:#555555;" transform="translate(103.096875 289.132182)scale(0.1 -0.1)">
       <use xlink:href="#DejaVuSans-48"/>
       <use x="63.623047" xlink:href="#DejaVuSans-46"/>
       <use x="95.410156" xlink:href="#DejaVuSans-52"/>
      </g>
     </g>
    </g>
    <g id="ytick_4">
     <g id="line2d_25">
      <path clip-path="url(#p6ed911ad86)" d="M 126 216.14743 
L 481.090909 216.14743 
" style="fill:none;stroke:#ffffff;stroke-linecap:square;stroke-width:0.8;"/>
     </g>
     <g id="line2d_26">
      <g>
       <use style="fill:#555555;stroke:#555555;stroke-width:0.8;" x="126" xlink:href="#m1d20546bef" y="216.14743"/>
      </g>
     </g>
     <g id="text_14">
      <!-- 0.6 -->
      <defs>
       <path d="M 33.015625 40.375 
Q 26.375 40.375 22.484375 35.828125 
Q 18.609375 31.296875 18.609375 23.390625 
Q 18.609375 15.53125 22.484375 10.953125 
Q 26.375 6.390625 33.015625 6.390625 
Q 39.65625 6.390625 43.53125 10.953125 
Q 47.40625 15.53125 47.40625 23.390625 
Q 47.40625 31.296875 43.53125 35.828125 
Q 39.65625 40.375 33.015625 40.375 
z
M 52.59375 71.296875 
L 52.59375 62.3125 
Q 48.875 64.0625 45.09375 64.984375 
Q 41.3125 65.921875 37.59375 65.921875 
Q 27.828125 65.921875 22.671875 59.328125 
Q 17.53125 52.734375 16.796875 39.40625 
Q 19.671875 43.65625 24.015625 45.921875 
Q 28.375 48.1875 33.59375 48.1875 
Q 44.578125 48.1875 50.953125 41.515625 
Q 57.328125 34.859375 57.328125 23.390625 
Q 57.328125 12.15625 50.6875 5.359375 
Q 44.046875 -1.421875 33.015625 -1.421875 
Q 20.359375 -1.421875 13.671875 8.265625 
Q 6.984375 17.96875 6.984375 36.375 
Q 6.984375 53.65625 15.1875 63.9375 
Q 23.390625 74.21875 37.203125 74.21875 
Q 40.921875 74.21875 44.703125 73.484375 
Q 48.484375 72.75 52.59375 71.296875 
z
" id="DejaVuSans-54"/>
      </defs>
      <g style="fill:#555555;" transform="translate(103.096875 219.946649)scale(0.1 -0.1)">
       <use xlink:href="#DejaVuSans-48"/>
       <use x="63.623047" xlink:href="#DejaVuSans-46"/>
       <use x="95.410156" xlink:href="#DejaVuSans-54"/>
      </g>
     </g>
    </g>
    <g id="ytick_5">
     <g id="line2d_27">
      <path clip-path="url(#p6ed911ad86)" d="M 126 146.961897 
L 481.090909 146.961897 
" style="fill:none;stroke:#ffffff;stroke-linecap:square;stroke-width:0.8;"/>
     </g>
     <g id="line2d_28">
      <g>
       <use style="fill:#555555;stroke:#555555;stroke-width:0.8;" x="126" xlink:href="#m1d20546bef" y="146.961897"/>
      </g>
     </g>
     <g id="text_15">
      <!-- 0.8 -->
      <defs>
       <path d="M 31.78125 34.625 
Q 24.75 34.625 20.71875 30.859375 
Q 16.703125 27.09375 16.703125 20.515625 
Q 16.703125 13.921875 20.71875 10.15625 
Q 24.75 6.390625 31.78125 6.390625 
Q 38.8125 6.390625 42.859375 10.171875 
Q 46.921875 13.96875 46.921875 20.515625 
Q 46.921875 27.09375 42.890625 30.859375 
Q 38.875 34.625 31.78125 34.625 
z
M 21.921875 38.8125 
Q 15.578125 40.375 12.03125 44.71875 
Q 8.5 49.078125 8.5 55.328125 
Q 8.5 64.0625 14.71875 69.140625 
Q 20.953125 74.21875 31.78125 74.21875 
Q 42.671875 74.21875 48.875 69.140625 
Q 55.078125 64.0625 55.078125 55.328125 
Q 55.078125 49.078125 51.53125 44.71875 
Q 48 40.375 41.703125 38.8125 
Q 48.828125 37.15625 52.796875 32.3125 
Q 56.78125 27.484375 56.78125 20.515625 
Q 56.78125 9.90625 50.3125 4.234375 
Q 43.84375 -1.421875 31.78125 -1.421875 
Q 19.734375 -1.421875 13.25 4.234375 
Q 6.78125 9.90625 6.78125 20.515625 
Q 6.78125 27.484375 10.78125 32.3125 
Q 14.796875 37.15625 21.921875 38.8125 
z
M 18.3125 54.390625 
Q 18.3125 48.734375 21.84375 45.5625 
Q 25.390625 42.390625 31.78125 42.390625 
Q 38.140625 42.390625 41.71875 45.5625 
Q 45.3125 48.734375 45.3125 54.390625 
Q 45.3125 60.0625 41.71875 63.234375 
Q 38.140625 66.40625 31.78125 66.40625 
Q 25.390625 66.40625 21.84375 63.234375 
Q 18.3125 60.0625 18.3125 54.390625 
z
" id="DejaVuSans-56"/>
      </defs>
      <g style="fill:#555555;" transform="translate(103.096875 150.761116)scale(0.1 -0.1)">
       <use xlink:href="#DejaVuSans-48"/>
       <use x="63.623047" xlink:href="#DejaVuSans-46"/>
       <use x="95.410156" xlink:href="#DejaVuSans-56"/>
      </g>
     </g>
    </g>
    <g id="ytick_6">
     <g id="line2d_29">
      <path clip-path="url(#p6ed911ad86)" d="M 126 77.776364 
L 481.090909 77.776364 
" style="fill:none;stroke:#ffffff;stroke-linecap:square;stroke-width:0.8;"/>
     </g>
     <g id="line2d_30">
      <g>
       <use style="fill:#555555;stroke:#555555;stroke-width:0.8;" x="126" xlink:href="#m1d20546bef" y="77.776364"/>
      </g>
     </g>
     <g id="text_16">
      <!-- 1.0 -->
      <g style="fill:#555555;" transform="translate(103.096875 81.575582)scale(0.1 -0.1)">
       <use xlink:href="#DejaVuSans-49"/>
       <use x="63.623047" xlink:href="#DejaVuSans-46"/>
       <use x="95.410156" xlink:href="#DejaVuSans-48"/>
      </g>
     </g>
    </g>
    <g id="text_17">
     <!-- tail prob. $\mathbf{P}\{X\geqslant \mathbf{E}X+\epsilon\}$ -->
     <defs>
      <path d="M 9.421875 75.984375 
L 18.40625 75.984375 
L 18.40625 0 
L 9.421875 0 
z
" id="DejaVuSans-108"/>
      <path d="M 18.109375 8.203125 
L 18.109375 -20.796875 
L 9.078125 -20.796875 
L 9.078125 54.6875 
L 18.109375 54.6875 
L 18.109375 46.390625 
Q 20.953125 51.265625 25.265625 53.625 
Q 29.59375 56 35.59375 56 
Q 45.5625 56 51.78125 48.09375 
Q 58.015625 40.1875 58.015625 27.296875 
Q 58.015625 14.40625 51.78125 6.484375 
Q 45.5625 -1.421875 35.59375 -1.421875 
Q 29.59375 -1.421875 25.265625 0.953125 
Q 20.953125 3.328125 18.109375 8.203125 
z
M 48.6875 27.296875 
Q 48.6875 37.203125 44.609375 42.84375 
Q 40.53125 48.484375 33.40625 48.484375 
Q 26.265625 48.484375 22.1875 42.84375 
Q 18.109375 37.203125 18.109375 27.296875 
Q 18.109375 17.390625 22.1875 11.75 
Q 26.265625 6.109375 33.40625 6.109375 
Q 40.53125 6.109375 44.609375 11.75 
Q 48.6875 17.390625 48.6875 27.296875 
z
" id="DejaVuSans-112"/>
      <path d="M 41.109375 46.296875 
Q 39.59375 47.171875 37.8125 47.578125 
Q 36.03125 48 33.890625 48 
Q 26.265625 48 22.1875 43.046875 
Q 18.109375 38.09375 18.109375 28.8125 
L 18.109375 0 
L 9.078125 0 
L 9.078125 54.6875 
L 18.109375 54.6875 
L 18.109375 46.1875 
Q 20.953125 51.171875 25.484375 53.578125 
Q 30.03125 56 36.53125 56 
Q 37.453125 56 38.578125 55.875 
Q 39.703125 55.765625 41.0625 55.515625 
z
" id="DejaVuSans-114"/>
      <path d="M 48.6875 27.296875 
Q 48.6875 37.203125 44.609375 42.84375 
Q 40.53125 48.484375 33.40625 48.484375 
Q 26.265625 48.484375 22.1875 42.84375 
Q 18.109375 37.203125 18.109375 27.296875 
Q 18.109375 17.390625 22.1875 11.75 
Q 26.265625 6.109375 33.40625 6.109375 
Q 40.53125 6.109375 44.609375 11.75 
Q 48.6875 17.390625 48.6875 27.296875 
z
M 18.109375 46.390625 
Q 20.953125 51.265625 25.265625 53.625 
Q 29.59375 56 35.59375 56 
Q 45.5625 56 51.78125 48.09375 
Q 58.015625 40.1875 58.015625 27.296875 
Q 58.015625 14.40625 51.78125 6.484375 
Q 45.5625 -1.421875 35.59375 -1.421875 
Q 29.59375 -1.421875 25.265625 0.953125 
Q 20.953125 3.328125 18.109375 8.203125 
L 18.109375 0 
L 9.078125 0 
L 9.078125 75.984375 
L 18.109375 75.984375 
z
" id="DejaVuSans-98"/>
      <path d="M 9.1875 72.90625 
L 40.375 72.90625 
Q 54.296875 72.90625 61.734375 66.71875 
Q 69.1875 60.546875 69.1875 49.125 
Q 69.1875 37.640625 61.734375 31.46875 
Q 54.296875 25.296875 40.375 25.296875 
L 27.984375 25.296875 
L 27.984375 0 
L 9.1875 0 
z
M 27.984375 59.28125 
L 27.984375 38.921875 
L 38.375 38.921875 
Q 43.84375 38.921875 46.828125 41.578125 
Q 49.8125 44.234375 49.8125 49.125 
Q 49.8125 54 46.828125 56.640625 
Q 43.84375 59.28125 38.375 59.28125 
z
" id="DejaVuSans-Bold-80"/>
      <path d="M 51.125 -9.28125 
L 51.125 -16.3125 
L 48.09375 -16.3125 
Q 35.9375 -16.3125 31.8125 -12.6875 
Q 27.6875 -9.078125 27.6875 1.703125 
L 27.6875 13.375 
Q 27.6875 20.75 25.046875 23.578125 
Q 22.40625 26.421875 15.484375 26.421875 
L 12.5 26.421875 
L 12.5 33.40625 
L 15.484375 33.40625 
Q 22.46875 33.40625 25.078125 36.203125 
Q 27.6875 39.015625 27.6875 46.296875 
L 27.6875 58.015625 
Q 27.6875 68.796875 31.8125 72.390625 
Q 35.9375 75.984375 48.09375 75.984375 
L 51.125 75.984375 
L 51.125 69 
L 47.796875 69 
Q 40.921875 69 38.8125 66.84375 
Q 36.71875 64.703125 36.71875 57.8125 
L 36.71875 45.703125 
Q 36.71875 38.03125 34.5 34.5625 
Q 32.28125 31.109375 26.90625 29.890625 
Q 32.328125 28.5625 34.515625 25.09375 
Q 36.71875 21.625 36.71875 14.015625 
L 36.71875 1.90625 
Q 36.71875 -4.984375 38.8125 -7.125 
Q 40.921875 -9.28125 47.796875 -9.28125 
z
" id="DejaVuSans-123"/>
      <path d="M 13.71875 72.90625 
L 23.6875 72.90625 
L 36.1875 46.578125 
L 58.796875 72.90625 
L 70.3125 72.90625 
L 40.28125 38.09375 
L 58.40625 0 
L 48.484375 0 
L 33.796875 30.71875 
L 7.171875 0 
L -4.296875 0 
L 29.78125 39.203125 
z
" id="DejaVuSans-Oblique-88"/>
      <path d="M 10.59375 -3.421875 
L 73.1875 19.28125 
L 73.1875 10.40625 
L 10.59375 -12.3125 
z
M 10.59375 49.21875 
L 10.59375 58.109375 
L 73.1875 35.40625 
L 73.1875 27.296875 
L 10.59375 4.59375 
L 10.59375 13.484375 
L 60.984375 31.296875 
z
" id="DejaVuSans-10878"/>
      <path d="M 9.1875 72.90625 
L 59.90625 72.90625 
L 59.90625 58.6875 
L 27.984375 58.6875 
L 27.984375 45.125 
L 58.015625 45.125 
L 58.015625 30.90625 
L 27.984375 30.90625 
L 27.984375 14.203125 
L 60.984375 14.203125 
L 60.984375 0 
L 9.1875 0 
z
" id="DejaVuSans-Bold-69"/>
      <path d="M 46 62.703125 
L 46 35.5 
L 73.1875 35.5 
L 73.1875 27.203125 
L 46 27.203125 
L 46 0 
L 37.796875 0 
L 37.796875 27.203125 
L 10.59375 27.203125 
L 10.59375 35.5 
L 37.796875 35.5 
L 37.796875 62.703125 
z
" id="DejaVuSans-43"/>
      <path d="M 12.5 -9.28125 
L 15.921875 -9.28125 
Q 22.75 -9.28125 24.828125 -7.171875 
Q 26.90625 -5.078125 26.90625 1.90625 
L 26.90625 14.015625 
Q 26.90625 21.625 29.09375 25.09375 
Q 31.296875 28.5625 36.71875 29.890625 
Q 31.296875 31.109375 29.09375 34.5625 
Q 26.90625 38.03125 26.90625 45.703125 
L 26.90625 57.8125 
Q 26.90625 64.75 24.828125 66.875 
Q 22.75 69 15.921875 69 
L 12.5 69 
L 12.5 75.984375 
L 15.578125 75.984375 
Q 27.734375 75.984375 31.8125 72.390625 
Q 35.890625 68.796875 35.890625 58.015625 
L 35.890625 46.296875 
Q 35.890625 39.015625 38.515625 36.203125 
Q 41.15625 33.40625 48.09375 33.40625 
L 51.125 33.40625 
L 51.125 26.421875 
L 48.09375 26.421875 
Q 41.15625 26.421875 38.515625 23.578125 
Q 35.890625 20.75 35.890625 13.375 
L 35.890625 1.703125 
Q 35.890625 -9.078125 31.8125 -12.6875 
Q 27.734375 -16.3125 15.578125 -16.3125 
L 12.5 -16.3125 
z
" id="DejaVuSans-125"/>
     </defs>
     <g style="fill:#555555;" transform="translate(96.576875 319.62)rotate(-90)scale(0.12 -0.12)">
      <use transform="translate(0 0.015625)" xlink:href="#DejaVuSans-116"/>
      <use transform="translate(39.208984 0.015625)" xlink:href="#DejaVuSans-97"/>
      <use transform="translate(100.488281 0.015625)" xlink:href="#DejaVuSans-105"/>
      <use transform="translate(128.271484 0.015625)" xlink:href="#DejaVuSans-108"/>
      <use transform="translate(156.054688 0.015625)" xlink:href="#DejaVuSans-32"/>
      <use transform="translate(187.841797 0.015625)" xlink:href="#DejaVuSans-112"/>
      <use transform="translate(251.318359 0.015625)" xlink:href="#DejaVuSans-114"/>
      <use transform="translate(292.431641 0.015625)" xlink:href="#DejaVuSans-111"/>
      <use transform="translate(353.613281 0.015625)" xlink:href="#DejaVuSans-98"/>
      <use transform="translate(417.089844 0.015625)" xlink:href="#DejaVuSans-46"/>
      <use transform="translate(448.876953 0.015625)" xlink:href="#DejaVuSans-32"/>
      <use transform="translate(480.664062 0.015625)" xlink:href="#DejaVuSans-Bold-80"/>
      <use transform="translate(553.955078 0.015625)" xlink:href="#DejaVuSans-123"/>
      <use transform="translate(617.578125 0.015625)" xlink:href="#DejaVuSans-Oblique-88"/>
      <use transform="translate(686.083984 0.015625)" xlink:href="#DejaVuSans-10878"/>
      <use transform="translate(769.873047 0.015625)" xlink:href="#DejaVuSans-Bold-69"/>
      <use transform="translate(838.183594 0.015625)" xlink:href="#DejaVuSans-Oblique-88"/>
      <use transform="translate(926.171875 0.015625)" xlink:href="#DejaVuSans-43"/>
      <use transform="translate(1029.443359 0.015625)" xlink:href="#DejaVuSans-Oblique-949"/>
      <use transform="translate(1083.496094 0.015625)" xlink:href="#DejaVuSans-125"/>
     </g>
    </g>
   </g>
   <g id="line2d_31">
    <path clip-path="url(#p6ed911ad86)" d="M 142.140496 77.776364 
L 144.079294 77.895664 
L 146.018092 78.253318 
L 147.956891 78.848587 
L 149.895689 79.68024 
L 151.834487 80.746562 
L 153.773286 82.045358 
L 156.035217 83.850853 
L 158.297148 85.964087 
L 160.55908 88.37919 
L 163.144144 91.500345 
L 165.729209 94.99583 
L 168.314273 98.853183 
L 171.22247 103.608215 
L 174.130668 108.782841 
L 177.361998 114.996876 
L 180.916462 122.358495 
L 184.470925 130.225841 
L 188.348522 139.327353 
L 192.872385 150.544 
L 197.719381 163.159545 
L 203.535775 178.928589 
L 211.290969 200.64421 
L 230.678952 255.210618 
L 237.141613 272.587394 
L 242.958008 287.583863 
L 248.128136 300.304839 
L 252.975132 311.649258 
L 257.498995 321.692068 
L 262.022858 331.182953 
L 266.223587 339.487177 
L 270.424317 347.293913 
L 274.301913 354.056737 
L 278.17951 360.395941 
L 282.057107 366.316735 
L 285.934703 371.827144 
L 289.8123 376.937664 
L 293.689897 381.660909 
L 297.567493 386.011277 
L 301.44509 390.004616 
L 305.322686 393.657907 
L 309.200283 396.988972 
L 313.07788 400.016194 
L 316.955476 402.758265 
L 320.833073 405.233954 
L 324.710669 407.46191 
L 328.911399 409.617235 
L 333.112129 411.526051 
L 337.635991 413.331112 
L 342.159854 414.901743 
L 347.00685 416.352348 
L 352.176979 417.665933 
L 357.67024 418.831706 
L 363.809768 419.895429 
L 370.272429 420.787146 
L 377.70449 421.577946 
L 386.105949 422.235014 
L 395.79994 422.760444 
L 407.43273 423.161779 
L 422.619984 423.45059 
L 444.593031 423.625792 
L 464.950413 423.6797 
L 464.950413 423.6797 
" style="fill:none;stroke:#e24a33;stroke-dasharray:1.5,2.475;stroke-dashoffset:0;stroke-width:1.5;"/>
   </g>
   <g id="line2d_32">
    <path clip-path="url(#p6ed911ad86)" d="M 142.140496 77.776364 
L 142.786762 77.917383 
L 143.433028 78.332921 
L 144.079294 79.011648 
L 145.048693 80.49839 
L 146.018092 82.513578 
L 146.987492 85.019395 
L 148.280024 89.059507 
L 149.572556 93.819986 
L 151.188221 100.658173 
L 153.12702 109.965311 
L 155.388951 122.035374 
L 158.297148 138.940868 
L 162.497878 164.938812 
L 171.545603 221.345824 
L 175.4232 243.965008 
L 178.977664 263.37298 
L 182.208994 279.7834 
L 185.117192 293.501421 
L 188.025389 306.21342 
L 190.933586 317.931634 
L 193.841784 328.684093 
L 196.749981 338.510214 
L 199.335046 346.50494 
L 201.92011 353.841551 
L 204.505175 360.558412 
L 207.090239 366.694698 
L 209.675303 372.289587 
L 212.260368 377.381655 
L 214.845432 382.0084 
L 217.430497 386.205907 
L 220.015561 390.008601 
L 222.600625 393.449091 
L 225.18569 396.558079 
L 228.093887 399.695162 
L 231.002085 402.487003 
L 233.910282 404.968524 
L 236.81848 407.171683 
L 240.04981 409.328511 
L 243.281141 411.213705 
L 246.835604 413.012177 
L 250.390068 414.559234 
L 254.267664 415.999547 
L 258.468394 417.311195 
L 262.992257 418.48055 
L 267.839252 419.501769 
L 273.332514 420.424119 
L 279.472042 421.221167 
L 286.580969 421.908448 
L 294.982429 422.482387 
L 304.999553 422.934247 
L 317.924875 423.281391 
L 335.697193 423.519747 
L 364.456035 423.656443 
L 434.575906 423.70234 
L 464.950413 423.703636 
L 464.950413 423.703636 
" style="fill:none;stroke:#348abd;stroke-dasharray:7.4,3.2;stroke-dashoffset:0;stroke-width:2;"/>
   </g>
   <g id="patch_3">
    <path d="M 126 441 
L 126 60.48 
" style="fill:none;stroke:#ffffff;stroke-linecap:square;stroke-linejoin:miter;"/>
   </g>
   <g id="patch_4">
    <path d="M 481.090909 441 
L 481.090909 60.48 
" style="fill:none;stroke:#ffffff;stroke-linecap:square;stroke-linejoin:miter;"/>
   </g>
   <g id="patch_5">
    <path d="M 126 441 
L 481.090909 441 
" style="fill:none;stroke:#ffffff;stroke-linecap:square;stroke-linejoin:miter;"/>
   </g>
   <g id="patch_6">
    <path d="M 126 60.48 
L 481.090909 60.48 
" style="fill:none;stroke:#ffffff;stroke-linecap:square;stroke-linejoin:miter;"/>
   </g>
   <g id="text_18">
    <!-- $X\sim Beta(2,98)$ -->
    <defs>
     <path d="M 73.1875 39.9375 
L 73.1875 31.203125 
Q 68.0625 27.390625 63.6875 25.703125 
Q 59.328125 24.03125 54.59375 24.03125 
Q 49.21875 24.03125 42.09375 26.90625 
Q 41.609375 27.09375 41.265625 27.25 
Q 40.96875 27.34375 40.234375 27.640625 
Q 32.671875 30.609375 28.078125 30.609375 
Q 23.78125 30.609375 19.578125 28.75 
Q 15.375 26.90625 10.59375 22.796875 
L 10.59375 31.546875 
Q 15.71875 35.359375 20.09375 37.03125 
Q 24.46875 38.71875 29.203125 38.71875 
Q 34.578125 38.71875 41.75 35.84375 
Q 42.28125 35.59375 42.53125 35.5 
Q 42.828125 35.40625 43.5625 35.109375 
Q 51.125 32.125 55.71875 32.125 
Q 59.90625 32.125 64.03125 33.953125 
Q 68.171875 35.796875 73.1875 39.9375 
z
" id="DejaVuSans-8764"/>
     <path d="M 16.890625 72.90625 
L 42.09375 72.90625 
Q 52.34375 72.90625 57.421875 69.09375 
Q 62.5 65.28125 62.5 57.625 
Q 62.5 50.59375 58.125 45.484375 
Q 53.765625 40.375 46.6875 39.3125 
Q 52.734375 37.9375 55.765625 34.078125 
Q 58.796875 30.21875 58.796875 23.78125 
Q 58.796875 12.796875 50.65625 6.390625 
Q 42.53125 0 28.421875 0 
L 2.6875 0 
z
M 19.28125 34.8125 
L 14.109375 8.109375 
L 29.984375 8.109375 
Q 38.921875 8.109375 43.75 12.203125 
Q 48.578125 16.3125 48.578125 23.78125 
Q 48.578125 29.546875 45.375 32.171875 
Q 42.1875 34.8125 35.109375 34.8125 
z
M 25.09375 64.796875 
L 20.796875 42.828125 
L 35.5 42.828125 
Q 43.359375 42.828125 47.78125 46.234375 
Q 52.203125 49.65625 52.203125 55.71875 
Q 52.203125 60.453125 49.21875 62.625 
Q 46.234375 64.796875 39.703125 64.796875 
z
" id="DejaVuSans-Oblique-66"/>
     <path d="M 48.09375 32.234375 
Q 48.25 33.015625 48.3125 33.84375 
Q 48.390625 34.671875 48.390625 35.5 
Q 48.390625 41.453125 44.890625 44.921875 
Q 41.40625 48.390625 35.40625 48.390625 
Q 28.71875 48.390625 23.578125 44.15625 
Q 18.453125 39.9375 15.828125 32.171875 
z
M 55.90625 25.203125 
L 14.109375 25.203125 
Q 13.8125 23.34375 13.71875 22.265625 
Q 13.625 21.1875 13.625 20.40625 
Q 13.625 13.625 17.796875 9.90625 
Q 21.96875 6.203125 29.59375 6.203125 
Q 35.453125 6.203125 40.671875 7.515625 
Q 45.90625 8.84375 50.390625 11.375 
L 48.6875 2.484375 
Q 43.84375 0.53125 38.6875 -0.4375 
Q 33.546875 -1.421875 28.21875 -1.421875 
Q 16.84375 -1.421875 10.71875 4.015625 
Q 4.59375 9.46875 4.59375 19.484375 
Q 4.59375 28.03125 7.640625 35.375 
Q 10.6875 42.71875 16.609375 48.484375 
Q 20.40625 52.09375 25.65625 54.046875 
Q 30.90625 56 36.8125 56 
Q 46.09375 56 51.578125 50.4375 
Q 57.078125 44.875 57.078125 35.5 
Q 57.078125 33.25 56.78125 30.6875 
Q 56.5 28.125 55.90625 25.203125 
z
" id="DejaVuSans-Oblique-101"/>
     <path d="M 42.28125 54.6875 
L 40.921875 47.703125 
L 23 47.703125 
L 17.1875 18.015625 
Q 16.890625 16.359375 16.75 15.234375 
Q 16.609375 14.109375 16.609375 13.484375 
Q 16.609375 10.359375 18.484375 8.9375 
Q 20.359375 7.515625 24.515625 7.515625 
L 33.59375 7.515625 
L 32.078125 0 
L 23.484375 0 
Q 15.484375 0 11.546875 3.125 
Q 7.625 6.25 7.625 12.59375 
Q 7.625 13.71875 7.765625 15.0625 
Q 7.90625 16.40625 8.203125 18.015625 
L 14.015625 47.703125 
L 6.390625 47.703125 
L 7.8125 54.6875 
L 15.28125 54.6875 
L 18.3125 70.21875 
L 27.296875 70.21875 
L 24.3125 54.6875 
z
" id="DejaVuSans-Oblique-116"/>
     <path d="M 53.71875 31.203125 
L 47.609375 0 
L 38.625 0 
L 40.28125 8.296875 
Q 36.328125 3.421875 31.265625 1 
Q 26.21875 -1.421875 20.015625 -1.421875 
Q 13.03125 -1.421875 8.5625 2.84375 
Q 4.109375 7.125 4.109375 13.8125 
Q 4.109375 23.390625 11.75 28.953125 
Q 19.390625 34.515625 32.8125 34.515625 
L 45.3125 34.515625 
L 45.796875 36.921875 
Q 45.90625 37.3125 45.953125 37.765625 
Q 46 38.234375 46 39.203125 
Q 46 43.5625 42.453125 45.96875 
Q 38.921875 48.390625 32.515625 48.390625 
Q 28.125 48.390625 23.5 47.265625 
Q 18.890625 46.140625 14.015625 43.890625 
L 15.578125 52.203125 
Q 20.65625 54.109375 25.515625 55.046875 
Q 30.375 56 34.90625 56 
Q 44.578125 56 49.625 51.796875 
Q 54.6875 47.609375 54.6875 39.59375 
Q 54.6875 37.984375 54.4375 35.8125 
Q 54.203125 33.640625 53.71875 31.203125 
z
M 44 27.484375 
L 35.015625 27.484375 
Q 23.96875 27.484375 18.671875 24.53125 
Q 13.375 21.578125 13.375 15.375 
Q 13.375 11.078125 16.078125 8.640625 
Q 18.796875 6.203125 23.578125 6.203125 
Q 30.90625 6.203125 36.375 11.453125 
Q 41.84375 16.703125 43.609375 25.484375 
z
" id="DejaVuSans-Oblique-97"/>
     <path d="M 31 75.875 
Q 24.46875 64.65625 21.28125 53.65625 
Q 18.109375 42.671875 18.109375 31.390625 
Q 18.109375 20.125 21.3125 9.0625 
Q 24.515625 -2 31 -13.1875 
L 23.1875 -13.1875 
Q 15.875 -1.703125 12.234375 9.375 
Q 8.59375 20.453125 8.59375 31.390625 
Q 8.59375 42.28125 12.203125 53.3125 
Q 15.828125 64.359375 23.1875 75.875 
z
" id="DejaVuSans-40"/>
     <path d="M 11.71875 12.40625 
L 22.015625 12.40625 
L 22.015625 4 
L 14.015625 -11.625 
L 7.71875 -11.625 
L 11.71875 4 
z
" id="DejaVuSans-44"/>
     <path d="M 10.984375 1.515625 
L 10.984375 10.5 
Q 14.703125 8.734375 18.5 7.8125 
Q 22.3125 6.890625 25.984375 6.890625 
Q 35.75 6.890625 40.890625 13.453125 
Q 46.046875 20.015625 46.78125 33.40625 
Q 43.953125 29.203125 39.59375 26.953125 
Q 35.25 24.703125 29.984375 24.703125 
Q 19.046875 24.703125 12.671875 31.3125 
Q 6.296875 37.9375 6.296875 49.421875 
Q 6.296875 60.640625 12.9375 67.421875 
Q 19.578125 74.21875 30.609375 74.21875 
Q 43.265625 74.21875 49.921875 64.515625 
Q 56.59375 54.828125 56.59375 36.375 
Q 56.59375 19.140625 48.40625 8.859375 
Q 40.234375 -1.421875 26.421875 -1.421875 
Q 22.703125 -1.421875 18.890625 -0.6875 
Q 15.09375 0.046875 10.984375 1.515625 
z
M 30.609375 32.421875 
Q 37.25 32.421875 41.125 36.953125 
Q 45.015625 41.5 45.015625 49.421875 
Q 45.015625 57.28125 41.125 61.84375 
Q 37.25 66.40625 30.609375 66.40625 
Q 23.96875 66.40625 20.09375 61.84375 
Q 16.21875 57.28125 16.21875 49.421875 
Q 16.21875 41.5 20.09375 36.953125 
Q 23.96875 32.421875 30.609375 32.421875 
z
" id="DejaVuSans-57"/>
     <path d="M 8.015625 75.875 
L 15.828125 75.875 
Q 23.140625 64.359375 26.78125 53.3125 
Q 30.421875 42.28125 30.421875 31.390625 
Q 30.421875 20.453125 26.78125 9.375 
Q 23.140625 -1.703125 15.828125 -13.1875 
L 8.015625 -13.1875 
Q 14.5 -2 17.703125 9.0625 
Q 20.90625 20.125 20.90625 31.390625 
Q 20.90625 42.671875 17.703125 53.65625 
Q 14.5 64.65625 8.015625 75.875 
z
" id="DejaVuSans-41"/>
    </defs>
    <g transform="translate(250.049455 54.48)scale(0.144 -0.144)">
     <use transform="translate(0 0.125)" xlink:href="#DejaVuSans-Oblique-88"/>
     <use transform="translate(87.988281 0.125)" xlink:href="#DejaVuSans-8764"/>
     <use transform="translate(191.259766 0.125)" xlink:href="#DejaVuSans-Oblique-66"/>
     <use transform="translate(259.863281 0.125)" xlink:href="#DejaVuSans-Oblique-101"/>
     <use transform="translate(321.386719 0.125)" xlink:href="#DejaVuSans-Oblique-116"/>
     <use transform="translate(360.595703 0.125)" xlink:href="#DejaVuSans-Oblique-97"/>
     <use transform="translate(421.875 0.125)" xlink:href="#DejaVuSans-40"/>
     <use transform="translate(460.888672 0.125)" xlink:href="#DejaVuSans-50"/>
     <use transform="translate(524.511719 0.125)" xlink:href="#DejaVuSans-44"/>
     <use transform="translate(575.78125 0.125)" xlink:href="#DejaVuSans-57"/>
     <use transform="translate(639.404297 0.125)" xlink:href="#DejaVuSans-56"/>
     <use transform="translate(703.027344 0.125)" xlink:href="#DejaVuSans-41"/>
    </g>
   </g>
   <g id="legend_1">
    <g id="patch_7">
     <path d="M 291.229972 97.83625 
L 474.090909 97.83625 
Q 476.090909 97.83625 476.090909 95.83625 
L 476.090909 67.48 
Q 476.090909 65.48 474.090909 65.48 
L 291.229972 65.48 
Q 289.229972 65.48 289.229972 67.48 
L 289.229972 95.83625 
Q 289.229972 97.83625 291.229972 97.83625 
z
" style="fill:#e5e5e5;opacity:0.8;stroke:#cccccc;stroke-linejoin:miter;stroke-width:0.5;"/>
    </g>
    <g id="line2d_33">
     <path d="M 293.229972 73.578438 
L 313.229972 73.578438 
" style="fill:none;stroke:#e24a33;stroke-dasharray:1.5,2.475;stroke-dashoffset:0;stroke-width:1.5;"/>
    </g>
    <g id="line2d_34"/>
    <g id="text_19">
     <!-- sub-gaussian bound -->
     <defs>
      <path d="M 44.28125 53.078125 
L 44.28125 44.578125 
Q 40.484375 46.53125 36.375 47.5 
Q 32.28125 48.484375 27.875 48.484375 
Q 21.1875 48.484375 17.84375 46.4375 
Q 14.5 44.390625 14.5 40.28125 
Q 14.5 37.15625 16.890625 35.375 
Q 19.28125 33.59375 26.515625 31.984375 
L 29.59375 31.296875 
Q 39.15625 29.25 43.1875 25.515625 
Q 47.21875 21.78125 47.21875 15.09375 
Q 47.21875 7.46875 41.1875 3.015625 
Q 35.15625 -1.421875 24.609375 -1.421875 
Q 20.21875 -1.421875 15.453125 -0.5625 
Q 10.6875 0.296875 5.421875 2 
L 5.421875 11.28125 
Q 10.40625 8.6875 15.234375 7.390625 
Q 20.0625 6.109375 24.8125 6.109375 
Q 31.15625 6.109375 34.5625 8.28125 
Q 37.984375 10.453125 37.984375 14.40625 
Q 37.984375 18.0625 35.515625 20.015625 
Q 33.0625 21.96875 24.703125 23.78125 
L 21.578125 24.515625 
Q 13.234375 26.265625 9.515625 29.90625 
Q 5.8125 33.546875 5.8125 39.890625 
Q 5.8125 47.609375 11.28125 51.796875 
Q 16.75 56 26.8125 56 
Q 31.78125 56 36.171875 55.265625 
Q 40.578125 54.546875 44.28125 53.078125 
z
" id="DejaVuSans-115"/>
      <path d="M 8.5 21.578125 
L 8.5 54.6875 
L 17.484375 54.6875 
L 17.484375 21.921875 
Q 17.484375 14.15625 20.5 10.265625 
Q 23.53125 6.390625 29.59375 6.390625 
Q 36.859375 6.390625 41.078125 11.03125 
Q 45.3125 15.671875 45.3125 23.6875 
L 45.3125 54.6875 
L 54.296875 54.6875 
L 54.296875 0 
L 45.3125 0 
L 45.3125 8.40625 
Q 42.046875 3.421875 37.71875 1 
Q 33.40625 -1.421875 27.6875 -1.421875 
Q 18.265625 -1.421875 13.375 4.4375 
Q 8.5 10.296875 8.5 21.578125 
z
M 31.109375 56 
z
" id="DejaVuSans-117"/>
      <path d="M 4.890625 31.390625 
L 31.203125 31.390625 
L 31.203125 23.390625 
L 4.890625 23.390625 
z
" id="DejaVuSans-45"/>
      <path d="M 45.40625 27.984375 
Q 45.40625 37.75 41.375 43.109375 
Q 37.359375 48.484375 30.078125 48.484375 
Q 22.859375 48.484375 18.828125 43.109375 
Q 14.796875 37.75 14.796875 27.984375 
Q 14.796875 18.265625 18.828125 12.890625 
Q 22.859375 7.515625 30.078125 7.515625 
Q 37.359375 7.515625 41.375 12.890625 
Q 45.40625 18.265625 45.40625 27.984375 
z
M 54.390625 6.78125 
Q 54.390625 -7.171875 48.1875 -13.984375 
Q 42 -20.796875 29.203125 -20.796875 
Q 24.46875 -20.796875 20.265625 -20.09375 
Q 16.0625 -19.390625 12.109375 -17.921875 
L 12.109375 -9.1875 
Q 16.0625 -11.328125 19.921875 -12.34375 
Q 23.78125 -13.375 27.78125 -13.375 
Q 36.625 -13.375 41.015625 -8.765625 
Q 45.40625 -4.15625 45.40625 5.171875 
L 45.40625 9.625 
Q 42.625 4.78125 38.28125 2.390625 
Q 33.9375 0 27.875 0 
Q 17.828125 0 11.671875 7.65625 
Q 5.515625 15.328125 5.515625 27.984375 
Q 5.515625 40.671875 11.671875 48.328125 
Q 17.828125 56 27.875 56 
Q 33.9375 56 38.28125 53.609375 
Q 42.625 51.21875 45.40625 46.390625 
L 45.40625 54.6875 
L 54.390625 54.6875 
z
" id="DejaVuSans-103"/>
     </defs>
     <g transform="translate(321.229972 77.078438)scale(0.1 -0.1)">
      <use xlink:href="#DejaVuSans-115"/>
      <use x="52.099609" xlink:href="#DejaVuSans-117"/>
      <use x="115.478516" xlink:href="#DejaVuSans-98"/>
      <use x="178.955078" xlink:href="#DejaVuSans-45"/>
      <use x="215.039062" xlink:href="#DejaVuSans-103"/>
      <use x="278.515625" xlink:href="#DejaVuSans-97"/>
      <use x="339.794922" xlink:href="#DejaVuSans-117"/>
      <use x="403.173828" xlink:href="#DejaVuSans-115"/>
      <use x="455.273438" xlink:href="#DejaVuSans-115"/>
      <use x="507.373047" xlink:href="#DejaVuSans-105"/>
      <use x="535.15625" xlink:href="#DejaVuSans-97"/>
      <use x="596.435547" xlink:href="#DejaVuSans-110"/>
      <use x="659.814453" xlink:href="#DejaVuSans-32"/>
      <use x="691.601562" xlink:href="#DejaVuSans-98"/>
      <use x="755.078125" xlink:href="#DejaVuSans-111"/>
      <use x="816.259766" xlink:href="#DejaVuSans-117"/>
      <use x="879.638672" xlink:href="#DejaVuSans-110"/>
      <use x="943.017578" xlink:href="#DejaVuSans-100"/>
     </g>
    </g>
    <g id="line2d_35">
     <path d="M 293.229972 88.256563 
L 313.229972 88.256563 
" style="fill:none;stroke:#348abd;stroke-dasharray:7.4,3.2;stroke-dashoffset:0;stroke-width:2;"/>
    </g>
    <g id="line2d_36"/>
    <g id="text_20">
     <!-- sub-gamma bound (this work) -->
     <defs>
      <path d="M 52 44.1875 
Q 55.375 50.25 60.0625 53.125 
Q 64.75 56 71.09375 56 
Q 79.640625 56 84.28125 50.015625 
Q 88.921875 44.046875 88.921875 33.015625 
L 88.921875 0 
L 79.890625 0 
L 79.890625 32.71875 
Q 79.890625 40.578125 77.09375 44.375 
Q 74.3125 48.1875 68.609375 48.1875 
Q 61.625 48.1875 57.5625 43.546875 
Q 53.515625 38.921875 53.515625 30.90625 
L 53.515625 0 
L 44.484375 0 
L 44.484375 32.71875 
Q 44.484375 40.625 41.703125 44.40625 
Q 38.921875 48.1875 33.109375 48.1875 
Q 26.21875 48.1875 22.15625 43.53125 
Q 18.109375 38.875 18.109375 30.90625 
L 18.109375 0 
L 9.078125 0 
L 9.078125 54.6875 
L 18.109375 54.6875 
L 18.109375 46.1875 
Q 21.1875 51.21875 25.484375 53.609375 
Q 29.78125 56 35.6875 56 
Q 41.65625 56 45.828125 52.96875 
Q 50 49.953125 52 44.1875 
z
" id="DejaVuSans-109"/>
      <path d="M 54.890625 33.015625 
L 54.890625 0 
L 45.90625 0 
L 45.90625 32.71875 
Q 45.90625 40.484375 42.875 44.328125 
Q 39.84375 48.1875 33.796875 48.1875 
Q 26.515625 48.1875 22.3125 43.546875 
Q 18.109375 38.921875 18.109375 30.90625 
L 18.109375 0 
L 9.078125 0 
L 9.078125 75.984375 
L 18.109375 75.984375 
L 18.109375 46.1875 
Q 21.34375 51.125 25.703125 53.5625 
Q 30.078125 56 35.796875 56 
Q 45.21875 56 50.046875 50.171875 
Q 54.890625 44.34375 54.890625 33.015625 
z
" id="DejaVuSans-104"/>
      <path d="M 4.203125 54.6875 
L 13.1875 54.6875 
L 24.421875 12.015625 
L 35.59375 54.6875 
L 46.1875 54.6875 
L 57.421875 12.015625 
L 68.609375 54.6875 
L 77.59375 54.6875 
L 63.28125 0 
L 52.6875 0 
L 40.921875 44.828125 
L 29.109375 0 
L 18.5 0 
z
" id="DejaVuSans-119"/>
      <path d="M 9.078125 75.984375 
L 18.109375 75.984375 
L 18.109375 31.109375 
L 44.921875 54.6875 
L 56.390625 54.6875 
L 27.390625 29.109375 
L 57.625 0 
L 45.90625 0 
L 18.109375 26.703125 
L 18.109375 0 
L 9.078125 0 
z
" id="DejaVuSans-107"/>
     </defs>
     <g transform="translate(321.229972 91.756563)scale(0.1 -0.1)">
      <use xlink:href="#DejaVuSans-115"/>
      <use x="52.099609" xlink:href="#DejaVuSans-117"/>
      <use x="115.478516" xlink:href="#DejaVuSans-98"/>
      <use x="178.955078" xlink:href="#DejaVuSans-45"/>
      <use x="215.039062" xlink:href="#DejaVuSans-103"/>
      <use x="278.515625" xlink:href="#DejaVuSans-97"/>
      <use x="339.794922" xlink:href="#DejaVuSans-109"/>
      <use x="437.207031" xlink:href="#DejaVuSans-109"/>
      <use x="534.619141" xlink:href="#DejaVuSans-97"/>
      <use x="595.898438" xlink:href="#DejaVuSans-32"/>
      <use x="627.685547" xlink:href="#DejaVuSans-98"/>
      <use x="691.162109" xlink:href="#DejaVuSans-111"/>
      <use x="752.34375" xlink:href="#DejaVuSans-117"/>
      <use x="815.722656" xlink:href="#DejaVuSans-110"/>
      <use x="879.101562" xlink:href="#DejaVuSans-100"/>
      <use x="942.578125" xlink:href="#DejaVuSans-32"/>
      <use x="974.365234" xlink:href="#DejaVuSans-40"/>
      <use x="1013.378906" xlink:href="#DejaVuSans-116"/>
      <use x="1052.587891" xlink:href="#DejaVuSans-104"/>
      <use x="1115.966797" xlink:href="#DejaVuSans-105"/>
      <use x="1143.75" xlink:href="#DejaVuSans-115"/>
      <use x="1195.849609" xlink:href="#DejaVuSans-32"/>
      <use x="1227.636719" xlink:href="#DejaVuSans-119"/>
      <use x="1309.423828" xlink:href="#DejaVuSans-111"/>
      <use x="1370.605469" xlink:href="#DejaVuSans-114"/>
      <use x="1411.71875" xlink:href="#DejaVuSans-107"/>
      <use x="1469.628906" xlink:href="#DejaVuSans-41"/>
     </g>
    </g>
   </g>
  </g>
  <g id="axes_2">
   <g id="patch_8">
    <path d="M 552.109091 441 
L 907.2 441 
L 907.2 60.48 
L 552.109091 60.48 
z
" style="fill:#e5e5e5;"/>
   </g>
   <g id="matplotlib.axis_3">
    <g id="xtick_10">
     <g id="line2d_37">
      <path clip-path="url(#p4f843d3904)" d="M 568.249587 441 
L 568.249587 60.48 
" style="fill:none;stroke:#ffffff;stroke-linecap:square;stroke-width:0.8;"/>
     </g>
     <g id="line2d_38">
      <g>
       <use style="fill:#555555;stroke:#555555;stroke-width:0.8;" x="568.249587" xlink:href="#m9847685eb6" y="441"/>
      </g>
     </g>
     <g id="text_21">
      <!-- 0.000 -->
      <g style="fill:#555555;" transform="translate(553.935524 455.598437)scale(0.1 -0.1)">
       <use xlink:href="#DejaVuSans-48"/>
       <use x="63.623047" xlink:href="#DejaVuSans-46"/>
       <use x="95.410156" xlink:href="#DejaVuSans-48"/>
       <use x="159.033203" xlink:href="#DejaVuSans-48"/>
       <use x="222.65625" xlink:href="#DejaVuSans-48"/>
      </g>
     </g>
    </g>
    <g id="xtick_11">
     <g id="line2d_39">
      <path clip-path="url(#p4f843d3904)" d="M 608.600826 441 
L 608.600826 60.48 
" style="fill:none;stroke:#ffffff;stroke-linecap:square;stroke-width:0.8;"/>
     </g>
     <g id="line2d_40">
      <g>
       <use style="fill:#555555;stroke:#555555;stroke-width:0.8;" x="608.600826" xlink:href="#m9847685eb6" y="441"/>
      </g>
     </g>
     <g id="text_22">
      <!-- 0.025 -->
      <g style="fill:#555555;" transform="translate(594.286764 455.598437)scale(0.1 -0.1)">
       <use xlink:href="#DejaVuSans-48"/>
       <use x="63.623047" xlink:href="#DejaVuSans-46"/>
       <use x="95.410156" xlink:href="#DejaVuSans-48"/>
       <use x="159.033203" xlink:href="#DejaVuSans-50"/>
       <use x="222.65625" xlink:href="#DejaVuSans-53"/>
      </g>
     </g>
    </g>
    <g id="xtick_12">
     <g id="line2d_41">
      <path clip-path="url(#p4f843d3904)" d="M 648.952066 441 
L 648.952066 60.48 
" style="fill:none;stroke:#ffffff;stroke-linecap:square;stroke-width:0.8;"/>
     </g>
     <g id="line2d_42">
      <g>
       <use style="fill:#555555;stroke:#555555;stroke-width:0.8;" x="648.952066" xlink:href="#m9847685eb6" y="441"/>
      </g>
     </g>
     <g id="text_23">
      <!-- 0.050 -->
      <g style="fill:#555555;" transform="translate(634.638004 455.598437)scale(0.1 -0.1)">
       <use xlink:href="#DejaVuSans-48"/>
       <use x="63.623047" xlink:href="#DejaVuSans-46"/>
       <use x="95.410156" xlink:href="#DejaVuSans-48"/>
       <use x="159.033203" xlink:href="#DejaVuSans-53"/>
       <use x="222.65625" xlink:href="#DejaVuSans-48"/>
      </g>
     </g>
    </g>
    <g id="xtick_13">
     <g id="line2d_43">
      <path clip-path="url(#p4f843d3904)" d="M 689.303306 441 
L 689.303306 60.48 
" style="fill:none;stroke:#ffffff;stroke-linecap:square;stroke-width:0.8;"/>
     </g>
     <g id="line2d_44">
      <g>
       <use style="fill:#555555;stroke:#555555;stroke-width:0.8;" x="689.303306" xlink:href="#m9847685eb6" y="441"/>
      </g>
     </g>
     <g id="text_24">
      <!-- 0.075 -->
      <g style="fill:#555555;" transform="translate(674.989243 455.598437)scale(0.1 -0.1)">
       <use xlink:href="#DejaVuSans-48"/>
       <use x="63.623047" xlink:href="#DejaVuSans-46"/>
       <use x="95.410156" xlink:href="#DejaVuSans-48"/>
       <use x="159.033203" xlink:href="#DejaVuSans-55"/>
       <use x="222.65625" xlink:href="#DejaVuSans-53"/>
      </g>
     </g>
    </g>
    <g id="xtick_14">
     <g id="line2d_45">
      <path clip-path="url(#p4f843d3904)" d="M 729.654545 441 
L 729.654545 60.48 
" style="fill:none;stroke:#ffffff;stroke-linecap:square;stroke-width:0.8;"/>
     </g>
     <g id="line2d_46">
      <g>
       <use style="fill:#555555;stroke:#555555;stroke-width:0.8;" x="729.654545" xlink:href="#m9847685eb6" y="441"/>
      </g>
     </g>
     <g id="text_25">
      <!-- 0.100 -->
      <g style="fill:#555555;" transform="translate(715.340483 455.598437)scale(0.1 -0.1)">
       <use xlink:href="#DejaVuSans-48"/>
       <use x="63.623047" xlink:href="#DejaVuSans-46"/>
       <use x="95.410156" xlink:href="#DejaVuSans-49"/>
       <use x="159.033203" xlink:href="#DejaVuSans-48"/>
       <use x="222.65625" xlink:href="#DejaVuSans-48"/>
      </g>
     </g>
    </g>
    <g id="xtick_15">
     <g id="line2d_47">
      <path clip-path="url(#p4f843d3904)" d="M 770.005785 441 
L 770.005785 60.48 
" style="fill:none;stroke:#ffffff;stroke-linecap:square;stroke-width:0.8;"/>
     </g>
     <g id="line2d_48">
      <g>
       <use style="fill:#555555;stroke:#555555;stroke-width:0.8;" x="770.005785" xlink:href="#m9847685eb6" y="441"/>
      </g>
     </g>
     <g id="text_26">
      <!-- 0.125 -->
      <g style="fill:#555555;" transform="translate(755.691723 455.598437)scale(0.1 -0.1)">
       <use xlink:href="#DejaVuSans-48"/>
       <use x="63.623047" xlink:href="#DejaVuSans-46"/>
       <use x="95.410156" xlink:href="#DejaVuSans-49"/>
       <use x="159.033203" xlink:href="#DejaVuSans-50"/>
       <use x="222.65625" xlink:href="#DejaVuSans-53"/>
      </g>
     </g>
    </g>
    <g id="xtick_16">
     <g id="line2d_49">
      <path clip-path="url(#p4f843d3904)" d="M 810.357025 441 
L 810.357025 60.48 
" style="fill:none;stroke:#ffffff;stroke-linecap:square;stroke-width:0.8;"/>
     </g>
     <g id="line2d_50">
      <g>
       <use style="fill:#555555;stroke:#555555;stroke-width:0.8;" x="810.357025" xlink:href="#m9847685eb6" y="441"/>
      </g>
     </g>
     <g id="text_27">
      <!-- 0.150 -->
      <g style="fill:#555555;" transform="translate(796.042962 455.598437)scale(0.1 -0.1)">
       <use xlink:href="#DejaVuSans-48"/>
       <use x="63.623047" xlink:href="#DejaVuSans-46"/>
       <use x="95.410156" xlink:href="#DejaVuSans-49"/>
       <use x="159.033203" xlink:href="#DejaVuSans-53"/>
       <use x="222.65625" xlink:href="#DejaVuSans-48"/>
      </g>
     </g>
    </g>
    <g id="xtick_17">
     <g id="line2d_51">
      <path clip-path="url(#p4f843d3904)" d="M 850.708264 441 
L 850.708264 60.48 
" style="fill:none;stroke:#ffffff;stroke-linecap:square;stroke-width:0.8;"/>
     </g>
     <g id="line2d_52">
      <g>
       <use style="fill:#555555;stroke:#555555;stroke-width:0.8;" x="850.708264" xlink:href="#m9847685eb6" y="441"/>
      </g>
     </g>
     <g id="text_28">
      <!-- 0.175 -->
      <g style="fill:#555555;" transform="translate(836.394202 455.598437)scale(0.1 -0.1)">
       <use xlink:href="#DejaVuSans-48"/>
       <use x="63.623047" xlink:href="#DejaVuSans-46"/>
       <use x="95.410156" xlink:href="#DejaVuSans-49"/>
       <use x="159.033203" xlink:href="#DejaVuSans-55"/>
       <use x="222.65625" xlink:href="#DejaVuSans-53"/>
      </g>
     </g>
    </g>
    <g id="xtick_18">
     <g id="line2d_53">
      <path clip-path="url(#p4f843d3904)" d="M 891.059504 441 
L 891.059504 60.48 
" style="fill:none;stroke:#ffffff;stroke-linecap:square;stroke-width:0.8;"/>
     </g>
     <g id="line2d_54">
      <g>
       <use style="fill:#555555;stroke:#555555;stroke-width:0.8;" x="891.059504" xlink:href="#m9847685eb6" y="441"/>
      </g>
     </g>
     <g id="text_29">
      <!-- 0.200 -->
      <g style="fill:#555555;" transform="translate(876.745442 455.598437)scale(0.1 -0.1)">
       <use xlink:href="#DejaVuSans-48"/>
       <use x="63.623047" xlink:href="#DejaVuSans-46"/>
       <use x="95.410156" xlink:href="#DejaVuSans-50"/>
       <use x="159.033203" xlink:href="#DejaVuSans-48"/>
       <use x="222.65625" xlink:href="#DejaVuSans-48"/>
      </g>
     </g>
    </g>
    <g id="text_30">
     <!-- deviation $\epsilon$ -->
     <g style="fill:#555555;" transform="translate(696.594545 470.79625)scale(0.12 -0.12)">
      <use transform="translate(0 0.015625)" xlink:href="#DejaVuSans-100"/>
      <use transform="translate(63.476562 0.015625)" xlink:href="#DejaVuSans-101"/>
      <use transform="translate(125 0.015625)" xlink:href="#DejaVuSans-118"/>
      <use transform="translate(184.179688 0.015625)" xlink:href="#DejaVuSans-105"/>
      <use transform="translate(211.962891 0.015625)" xlink:href="#DejaVuSans-97"/>
      <use transform="translate(273.242188 0.015625)" xlink:href="#DejaVuSans-116"/>
      <use transform="translate(312.451172 0.015625)" xlink:href="#DejaVuSans-105"/>
      <use transform="translate(340.234375 0.015625)" xlink:href="#DejaVuSans-111"/>
      <use transform="translate(401.416016 0.015625)" xlink:href="#DejaVuSans-110"/>
      <use transform="translate(464.794922 0.015625)" xlink:href="#DejaVuSans-32"/>
      <use transform="translate(496.582031 0.015625)" xlink:href="#DejaVuSans-Oblique-949"/>
     </g>
    </g>
   </g>
   <g id="matplotlib.axis_4">
    <g id="ytick_7">
     <g id="line2d_55">
      <path clip-path="url(#p4f843d3904)" d="M 552.109091 423.710127 
L 907.2 423.710127 
" style="fill:none;stroke:#ffffff;stroke-linecap:square;stroke-width:0.8;"/>
     </g>
     <g id="line2d_56">
      <g>
       <use style="fill:#555555;stroke:#555555;stroke-width:0.8;" x="552.109091" xlink:href="#m1d20546bef" y="423.710127"/>
      </g>
     </g>
     <g id="text_31">
      <!-- 0.0 -->
      <g style="fill:#555555;" transform="translate(529.205966 427.509346)scale(0.1 -0.1)">
       <use xlink:href="#DejaVuSans-48"/>
       <use x="63.623047" xlink:href="#DejaVuSans-46"/>
       <use x="95.410156" xlink:href="#DejaVuSans-48"/>
      </g>
     </g>
    </g>
    <g id="ytick_8">
     <g id="line2d_57">
      <path clip-path="url(#p4f843d3904)" d="M 552.109091 354.523374 
L 907.2 354.523374 
" style="fill:none;stroke:#ffffff;stroke-linecap:square;stroke-width:0.8;"/>
     </g>
     <g id="line2d_58">
      <g>
       <use style="fill:#555555;stroke:#555555;stroke-width:0.8;" x="552.109091" xlink:href="#m1d20546bef" y="354.523374"/>
      </g>
     </g>
     <g id="text_32">
      <!-- 0.2 -->
      <g style="fill:#555555;" transform="translate(529.205966 358.322593)scale(0.1 -0.1)">
       <use xlink:href="#DejaVuSans-48"/>
       <use x="63.623047" xlink:href="#DejaVuSans-46"/>
       <use x="95.410156" xlink:href="#DejaVuSans-50"/>
      </g>
     </g>
    </g>
    <g id="ytick_9">
     <g id="line2d_59">
      <path clip-path="url(#p4f843d3904)" d="M 552.109091 285.336622 
L 907.2 285.336622 
" style="fill:none;stroke:#ffffff;stroke-linecap:square;stroke-width:0.8;"/>
     </g>
     <g id="line2d_60">
      <g>
       <use style="fill:#555555;stroke:#555555;stroke-width:0.8;" x="552.109091" xlink:href="#m1d20546bef" y="285.336622"/>
      </g>
     </g>
     <g id="text_33">
      <!-- 0.4 -->
      <g style="fill:#555555;" transform="translate(529.205966 289.13584)scale(0.1 -0.1)">
       <use xlink:href="#DejaVuSans-48"/>
       <use x="63.623047" xlink:href="#DejaVuSans-46"/>
       <use x="95.410156" xlink:href="#DejaVuSans-52"/>
      </g>
     </g>
    </g>
    <g id="ytick_10">
     <g id="line2d_61">
      <path clip-path="url(#p4f843d3904)" d="M 552.109091 216.149869 
L 907.2 216.149869 
" style="fill:none;stroke:#ffffff;stroke-linecap:square;stroke-width:0.8;"/>
     </g>
     <g id="line2d_62">
      <g>
       <use style="fill:#555555;stroke:#555555;stroke-width:0.8;" x="552.109091" xlink:href="#m1d20546bef" y="216.149869"/>
      </g>
     </g>
     <g id="text_34">
      <!-- 0.6 -->
      <g style="fill:#555555;" transform="translate(529.205966 219.949088)scale(0.1 -0.1)">
       <use xlink:href="#DejaVuSans-48"/>
       <use x="63.623047" xlink:href="#DejaVuSans-46"/>
       <use x="95.410156" xlink:href="#DejaVuSans-54"/>
      </g>
     </g>
    </g>
    <g id="ytick_11">
     <g id="line2d_63">
      <path clip-path="url(#p4f843d3904)" d="M 552.109091 146.963116 
L 907.2 146.963116 
" style="fill:none;stroke:#ffffff;stroke-linecap:square;stroke-width:0.8;"/>
     </g>
     <g id="line2d_64">
      <g>
       <use style="fill:#555555;stroke:#555555;stroke-width:0.8;" x="552.109091" xlink:href="#m1d20546bef" y="146.963116"/>
      </g>
     </g>
     <g id="text_35">
      <!-- 0.8 -->
      <g style="fill:#555555;" transform="translate(529.205966 150.762335)scale(0.1 -0.1)">
       <use xlink:href="#DejaVuSans-48"/>
       <use x="63.623047" xlink:href="#DejaVuSans-46"/>
       <use x="95.410156" xlink:href="#DejaVuSans-56"/>
      </g>
     </g>
    </g>
    <g id="ytick_12">
     <g id="line2d_65">
      <path clip-path="url(#p4f843d3904)" d="M 552.109091 77.776364 
L 907.2 77.776364 
" style="fill:none;stroke:#ffffff;stroke-linecap:square;stroke-width:0.8;"/>
     </g>
     <g id="line2d_66">
      <g>
       <use style="fill:#555555;stroke:#555555;stroke-width:0.8;" x="552.109091" xlink:href="#m1d20546bef" y="77.776364"/>
      </g>
     </g>
     <g id="text_36">
      <!-- 1.0 -->
      <g style="fill:#555555;" transform="translate(529.205966 81.575582)scale(0.1 -0.1)">
       <use xlink:href="#DejaVuSans-49"/>
       <use x="63.623047" xlink:href="#DejaVuSans-46"/>
       <use x="95.410156" xlink:href="#DejaVuSans-48"/>
      </g>
     </g>
    </g>
    <g id="text_37">
     <!-- tail prob. $\mathbf{P}\{X\geqslant \mathbf{E}X+\epsilon\}$ -->
     <g style="fill:#555555;" transform="translate(522.685966 319.62)rotate(-90)scale(0.12 -0.12)">
      <use transform="translate(0 0.015625)" xlink:href="#DejaVuSans-116"/>
      <use transform="translate(39.208984 0.015625)" xlink:href="#DejaVuSans-97"/>
      <use transform="translate(100.488281 0.015625)" xlink:href="#DejaVuSans-105"/>
      <use transform="translate(128.271484 0.015625)" xlink:href="#DejaVuSans-108"/>
      <use transform="translate(156.054688 0.015625)" xlink:href="#DejaVuSans-32"/>
      <use transform="translate(187.841797 0.015625)" xlink:href="#DejaVuSans-112"/>
      <use transform="translate(251.318359 0.015625)" xlink:href="#DejaVuSans-114"/>
      <use transform="translate(292.431641 0.015625)" xlink:href="#DejaVuSans-111"/>
      <use transform="translate(353.613281 0.015625)" xlink:href="#DejaVuSans-98"/>
      <use transform="translate(417.089844 0.015625)" xlink:href="#DejaVuSans-46"/>
      <use transform="translate(448.876953 0.015625)" xlink:href="#DejaVuSans-32"/>
      <use transform="translate(480.664062 0.015625)" xlink:href="#DejaVuSans-Bold-80"/>
      <use transform="translate(553.955078 0.015625)" xlink:href="#DejaVuSans-123"/>
      <use transform="translate(617.578125 0.015625)" xlink:href="#DejaVuSans-Oblique-88"/>
      <use transform="translate(686.083984 0.015625)" xlink:href="#DejaVuSans-10878"/>
      <use transform="translate(769.873047 0.015625)" xlink:href="#DejaVuSans-Bold-69"/>
      <use transform="translate(838.183594 0.015625)" xlink:href="#DejaVuSans-Oblique-88"/>
      <use transform="translate(926.171875 0.015625)" xlink:href="#DejaVuSans-43"/>
      <use transform="translate(1029.443359 0.015625)" xlink:href="#DejaVuSans-Oblique-949"/>
      <use transform="translate(1083.496094 0.015625)" xlink:href="#DejaVuSans-125"/>
     </g>
    </g>
   </g>
   <g id="line2d_67">
    <path clip-path="url(#p4f843d3904)" d="M 568.249587 77.776364 
L 570.188385 77.888466 
L 572.127183 78.224554 
L 574.065982 78.783975 
L 576.00478 79.565644 
L 577.943578 80.568044 
L 580.20551 82.013879 
L 582.467441 83.753697 
L 584.729372 85.782939 
L 586.991304 88.096311 
L 589.576368 91.080333 
L 592.161433 94.417516 
L 594.746497 98.096666 
L 597.654694 102.629179 
L 600.562892 107.560039 
L 603.794222 113.481135 
L 607.348686 120.497584 
L 610.903149 128.000318 
L 614.780746 136.687636 
L 619.304609 147.407764 
L 624.151604 159.486514 
L 629.967999 174.621706 
L 637.076927 193.776878 
L 662.604437 263.158857 
L 668.743965 278.893882 
L 674.237227 292.386358 
L 679.407356 304.502676 
L 684.254352 315.299258 
L 688.778215 324.854019 
L 693.302077 333.884245 
L 697.502807 341.788486 
L 701.703537 349.2242 
L 705.904266 356.190778 
L 709.781863 362.208057 
L 713.659459 367.834147 
L 717.537056 373.077029 
L 721.414653 377.94678 
L 725.292249 382.455279 
L 729.169846 386.615917 
L 733.047442 390.443314 
L 736.925039 393.953055 
L 740.802636 397.161435 
L 744.680232 400.085226 
L 748.557829 402.741462 
L 752.758559 405.336951 
L 756.959288 407.660087 
L 761.160018 409.732082 
L 765.683881 411.706262 
L 770.207743 413.437936 
L 775.054739 415.051052 
L 780.224868 416.525661 
L 785.71813 417.847981 
L 791.534525 419.010545 
L 797.674053 420.012017 
L 804.459847 420.893947 
L 812.21504 421.667376 
L 820.939632 422.304223 
L 831.27989 422.822427 
L 843.882079 423.215739 
L 860.361864 423.489475 
L 884.919976 423.649333 
L 891.059504 423.666792 
L 891.059504 423.666792 
" style="fill:none;stroke:#e24a33;stroke-dasharray:1.5,2.475;stroke-dashoffset:0;stroke-width:1.5;"/>
   </g>
   <g id="line2d_68">
    <path clip-path="url(#p4f843d3904)" d="M 568.249587 77.776364 
L 569.218986 77.861584 
L 570.511518 78.237295 
L 571.80405 78.906664 
L 573.096583 79.862745 
L 574.389115 81.098048 
L 575.681647 82.60459 
L 577.297312 84.85631 
L 578.912977 87.501288 
L 580.851776 91.168702 
L 582.790574 95.34343 
L 585.052505 100.809869 
L 587.314437 106.865458 
L 589.899501 114.435575 
L 592.807699 123.679449 
L 596.039029 134.714571 
L 599.916626 148.80191 
L 604.763621 167.330445 
L 612.841948 199.295699 
L 621.56654 233.539012 
L 627.059802 254.178185 
L 631.583665 270.366531 
L 635.784394 284.626556 
L 639.661991 297.06719 
L 643.539588 308.776935 
L 647.094051 318.851327 
L 650.648515 328.289073 
L 654.202978 337.093051 
L 657.757442 345.273126 
L 660.988772 352.181213 
L 664.220103 358.601655 
L 667.451433 364.552104 
L 670.682764 370.052172 
L 673.914094 375.122919 
L 677.145425 379.786394 
L 680.376755 384.065231 
L 683.608086 387.982313 
L 686.839416 391.56047 
L 690.070747 394.822237 
L 693.302077 397.789649 
L 696.856541 400.739307 
L 700.411004 403.385972 
L 703.965468 405.755666 
L 707.519932 407.87299 
L 711.397528 409.922098 
L 715.275125 411.726302 
L 719.475854 413.434366 
L 723.999717 415.020566 
L 728.846713 416.466016 
L 734.016842 417.758804 
L 739.510103 418.893734 
L 745.326498 419.87172 
L 751.789159 420.737363 
L 759.22122 421.503623 
L 767.622679 422.142833 
L 777.639803 422.674635 
L 789.918859 423.092787 
L 805.752379 423.397542 
L 828.694825 423.596318 
L 869.732723 423.692547 
L 891.059504 423.703636 
L 891.059504 423.703636 
" style="fill:none;stroke:#348abd;stroke-dasharray:7.4,3.2;stroke-dashoffset:0;stroke-width:2;"/>
   </g>
   <g id="patch_9">
    <path d="M 552.109091 441 
L 552.109091 60.48 
" style="fill:none;stroke:#ffffff;stroke-linecap:square;stroke-linejoin:miter;"/>
   </g>
   <g id="patch_10">
    <path d="M 907.2 441 
L 907.2 60.48 
" style="fill:none;stroke:#ffffff;stroke-linecap:square;stroke-linejoin:miter;"/>
   </g>
   <g id="patch_11">
    <path d="M 552.109091 441 
L 907.2 441 
" style="fill:none;stroke:#ffffff;stroke-linecap:square;stroke-linejoin:miter;"/>
   </g>
   <g id="patch_12">
    <path d="M 552.109091 60.48 
L 907.2 60.48 
" style="fill:none;stroke:#ffffff;stroke-linecap:square;stroke-linejoin:miter;"/>
   </g>
   <g id="text_38">
    <!-- $X\sim Beta(8,92)$ -->
    <g transform="translate(676.302545 54.48)scale(0.144 -0.144)">
     <use transform="translate(0 0.125)" xlink:href="#DejaVuSans-Oblique-88"/>
     <use transform="translate(87.988281 0.125)" xlink:href="#DejaVuSans-8764"/>
     <use transform="translate(191.259766 0.125)" xlink:href="#DejaVuSans-Oblique-66"/>
     <use transform="translate(259.863281 0.125)" xlink:href="#DejaVuSans-Oblique-101"/>
     <use transform="translate(321.386719 0.125)" xlink:href="#DejaVuSans-Oblique-116"/>
     <use transform="translate(360.595703 0.125)" xlink:href="#DejaVuSans-Oblique-97"/>
     <use transform="translate(421.875 0.125)" xlink:href="#DejaVuSans-40"/>
     <use transform="translate(460.888672 0.125)" xlink:href="#DejaVuSans-56"/>
     <use transform="translate(524.511719 0.125)" xlink:href="#DejaVuSans-44"/>
     <use transform="translate(575.78125 0.125)" xlink:href="#DejaVuSans-57"/>
     <use transform="translate(637.654297 0.125)" xlink:href="#DejaVuSans-50"/>
     <use transform="translate(701.277344 0.125)" xlink:href="#DejaVuSans-41"/>
    </g>
   </g>
   <g id="legend_2">
    <g id="patch_13">
     <path d="M 717.339062 97.83625 
L 900.2 97.83625 
Q 902.2 97.83625 902.2 95.83625 
L 902.2 67.48 
Q 902.2 65.48 900.2 65.48 
L 717.339062 65.48 
Q 715.339062 65.48 715.339062 67.48 
L 715.339062 95.83625 
Q 715.339062 97.83625 717.339062 97.83625 
z
" style="fill:#e5e5e5;opacity:0.8;stroke:#cccccc;stroke-linejoin:miter;stroke-width:0.5;"/>
    </g>
    <g id="line2d_69">
     <path d="M 719.339062 73.578438 
L 739.339062 73.578438 
" style="fill:none;stroke:#e24a33;stroke-dasharray:1.5,2.475;stroke-dashoffset:0;stroke-width:1.5;"/>
    </g>
    <g id="line2d_70"/>
    <g id="text_39">
     <!-- sub-gaussian bound -->
     <g transform="translate(747.339062 77.078438)scale(0.1 -0.1)">
      <use xlink:href="#DejaVuSans-115"/>
      <use x="52.099609" xlink:href="#DejaVuSans-117"/>
      <use x="115.478516" xlink:href="#DejaVuSans-98"/>
      <use x="178.955078" xlink:href="#DejaVuSans-45"/>
      <use x="215.039062" xlink:href="#DejaVuSans-103"/>
      <use x="278.515625" xlink:href="#DejaVuSans-97"/>
      <use x="339.794922" xlink:href="#DejaVuSans-117"/>
      <use x="403.173828" xlink:href="#DejaVuSans-115"/>
      <use x="455.273438" xlink:href="#DejaVuSans-115"/>
      <use x="507.373047" xlink:href="#DejaVuSans-105"/>
      <use x="535.15625" xlink:href="#DejaVuSans-97"/>
      <use x="596.435547" xlink:href="#DejaVuSans-110"/>
      <use x="659.814453" xlink:href="#DejaVuSans-32"/>
      <use x="691.601562" xlink:href="#DejaVuSans-98"/>
      <use x="755.078125" xlink:href="#DejaVuSans-111"/>
      <use x="816.259766" xlink:href="#DejaVuSans-117"/>
      <use x="879.638672" xlink:href="#DejaVuSans-110"/>
      <use x="943.017578" xlink:href="#DejaVuSans-100"/>
     </g>
    </g>
    <g id="line2d_71">
     <path d="M 719.339062 88.256563 
L 739.339062 88.256563 
" style="fill:none;stroke:#348abd;stroke-dasharray:7.4,3.2;stroke-dashoffset:0;stroke-width:2;"/>
    </g>
    <g id="line2d_72"/>
    <g id="text_40">
     <!-- sub-gamma bound (this work) -->
     <g transform="translate(747.339062 91.756563)scale(0.1 -0.1)">
      <use xlink:href="#DejaVuSans-115"/>
      <use x="52.099609" xlink:href="#DejaVuSans-117"/>
      <use x="115.478516" xlink:href="#DejaVuSans-98"/>
      <use x="178.955078" xlink:href="#DejaVuSans-45"/>
      <use x="215.039062" xlink:href="#DejaVuSans-103"/>
      <use x="278.515625" xlink:href="#DejaVuSans-97"/>
      <use x="339.794922" xlink:href="#DejaVuSans-109"/>
      <use x="437.207031" xlink:href="#DejaVuSans-109"/>
      <use x="534.619141" xlink:href="#DejaVuSans-97"/>
      <use x="595.898438" xlink:href="#DejaVuSans-32"/>
      <use x="627.685547" xlink:href="#DejaVuSans-98"/>
      <use x="691.162109" xlink:href="#DejaVuSans-111"/>
      <use x="752.34375" xlink:href="#DejaVuSans-117"/>
      <use x="815.722656" xlink:href="#DejaVuSans-110"/>
      <use x="879.101562" xlink:href="#DejaVuSans-100"/>
      <use x="942.578125" xlink:href="#DejaVuSans-32"/>
      <use x="974.365234" xlink:href="#DejaVuSans-40"/>
      <use x="1013.378906" xlink:href="#DejaVuSans-116"/>
      <use x="1052.587891" xlink:href="#DejaVuSans-104"/>
      <use x="1115.966797" xlink:href="#DejaVuSans-105"/>
      <use x="1143.75" xlink:href="#DejaVuSans-115"/>
      <use x="1195.849609" xlink:href="#DejaVuSans-32"/>
      <use x="1227.636719" xlink:href="#DejaVuSans-119"/>
      <use x="1309.423828" xlink:href="#DejaVuSans-111"/>
      <use x="1370.605469" xlink:href="#DejaVuSans-114"/>
      <use x="1411.71875" xlink:href="#DejaVuSans-107"/>
      <use x="1469.628906" xlink:href="#DejaVuSans-41"/>
     </g>
    </g>
   </g>
  </g>
 </g>
 <defs>
  <clipPath id="p6ed911ad86">
   <rect height="380.52" width="355.090909" x="126" y="60.48"/>
  </clipPath>
  <clipPath id="p4f843d3904">
   <rect height="380.52" width="355.090909" x="552.109091" y="60.48"/>
  </clipPath>
 </defs>
</svg>
